<mxfile host="65bd71144e" pages="3">
    <diagram name="C1 model" id="yP3WF3xp7BAWF4jeJAyD">
        <mxGraphModel dx="2610" dy="1849" grid="0" gridSize="10" guides="1" tooltips="1" connect="1" arrows="1" fold="1" page="0" pageScale="1" pageWidth="827" pageHeight="1169" math="0" shadow="0">
            <root>
                <mxCell id="0"/>
                <mxCell id="1" parent="0"/>
                <object placeholders="1" c4Name="User" c4Type="Person" c4Description="The user is the logged user who will use the application to track their own skills through the roadmaps." label="&lt;font style=&quot;font-size: 16px&quot;&gt;&lt;b&gt;%c4Name%&lt;/b&gt;&lt;/font&gt;&lt;div&gt;[%c4Type%]&lt;/div&gt;&lt;br&gt;&lt;div&gt;&lt;font style=&quot;font-size: 11px&quot;&gt;&lt;font color=&quot;#cccccc&quot;&gt;%c4Description%&lt;/font&gt;&lt;/div&gt;" id="AbpUERWYxR9ucFg2D5k0-2">
                    <mxCell style="html=1;fontSize=11;dashed=0;whiteSpace=wrap;fillColor=#083F75;strokeColor=#06315C;fontColor=#ffffff;shape=mxgraph.c4.person2;align=center;metaEdit=1;points=[[0.5,0,0],[1,0.5,0],[1,0.75,0],[0.75,1,0],[0.5,1,0],[0.25,1,0],[0,0.75,0],[0,0.5,0]];resizable=0;movable=0;rotatable=0;deletable=0;editable=0;connectable=0;strokeWidth=2;" parent="1" vertex="1">
                        <mxGeometry x="-1203" y="-705" width="200" height="180" as="geometry"/>
                    </mxCell>
                </object>
                <object placeholders="1" c4Name="Skill Tracking" c4Type="Software System" c4Description="The application system that tracks user skills throught roadmaps." label="&lt;font style=&quot;font-size: 16px&quot;&gt;&lt;b&gt;%c4Name%&lt;/b&gt;&lt;/font&gt;&lt;div&gt;[%c4Type%]&lt;/div&gt;&lt;br&gt;&lt;div&gt;&lt;font style=&quot;font-size: 11px&quot;&gt;&lt;font color=&quot;#cccccc&quot;&gt;%c4Description%&lt;/font&gt;&lt;/div&gt;" id="AbpUERWYxR9ucFg2D5k0-3">
                    <mxCell style="rounded=1;whiteSpace=wrap;html=1;labelBackgroundColor=none;fillColor=#1061B0;fontColor=#ffffff;align=center;arcSize=10;strokeColor=#0D5091;metaEdit=1;resizable=0;points=[[0.25,0,0],[0.5,0,0],[0.75,0,0],[1,0.25,0],[1,0.5,0],[1,0.75,0],[0.75,1,0],[0.5,1,0],[0.25,1,0],[0,0.75,0],[0,0.5,0],[0,0.25,0]];movable=0;rotatable=0;deletable=0;editable=0;connectable=0;strokeWidth=2;" parent="1" vertex="1">
                        <mxGeometry x="-644" y="-630" width="240" height="120" as="geometry"/>
                    </mxCell>
                </object>
                <object placeholders="1" c4Name="C1" c4Type="ScopeBoundary" c4Application="Scope" label="&lt;font style=&quot;font-size: 16px&quot;&gt;&lt;b&gt;&lt;div style=&quot;text-align: left&quot;&gt;%c4Name%&lt;/div&gt;&lt;/b&gt;&lt;/font&gt;&lt;div style=&quot;text-align: left&quot;&gt;[%c4Application%]&lt;/div&gt;" id="AbpUERWYxR9ucFg2D5k0-11">
                    <mxCell style="rounded=1;fontSize=11;whiteSpace=wrap;html=1;dashed=1;arcSize=20;fillColor=none;strokeColor=#666666;fontColor=#333333;labelBackgroundColor=none;align=left;verticalAlign=bottom;labelBorderColor=none;spacingTop=0;spacing=10;dashPattern=8 4;metaEdit=1;rotatable=0;perimeter=rectanglePerimeter;noLabel=0;labelPadding=0;allowArrows=0;connectable=0;expand=0;recursiveResize=0;editable=0;pointerEvents=0;absoluteArcSize=1;points=[[0.25,0,0],[0.5,0,0],[0.75,0,0],[1,0.25,0],[1,0.5,0],[1,0.75,0],[0.75,1,0],[0.5,1,0],[0.25,1,0],[0,0.75,0],[0,0.5,0],[0,0.25,0]];movable=0;resizable=0;deletable=0;strokeWidth=2;" parent="1" vertex="1">
                        <mxGeometry x="-1262" y="-941" width="1393" height="661" as="geometry"/>
                    </mxCell>
                </object>
                <object placeholders="1" c4Name="Anonymous User" c4Type="Person" c4Description="The anonymous user is anyone who is not logged on the application." label="&lt;font style=&quot;font-size: 16px&quot;&gt;&lt;b&gt;%c4Name%&lt;/b&gt;&lt;/font&gt;&lt;div&gt;[%c4Type%]&lt;/div&gt;&lt;br&gt;&lt;div&gt;&lt;font style=&quot;font-size: 11px&quot;&gt;&lt;font color=&quot;#cccccc&quot;&gt;%c4Description%&lt;/font&gt;&lt;/div&gt;" id="AbpUERWYxR9ucFg2D5k0-56">
                    <mxCell style="html=1;fontSize=11;dashed=0;whiteSpace=wrap;fillColor=#083F75;strokeColor=#06315C;fontColor=#ffffff;shape=mxgraph.c4.person2;align=center;metaEdit=1;points=[[0.5,0,0],[1,0.5,0],[1,0.75,0],[0.75,1,0],[0.5,1,0],[0.25,1,0],[0,0.75,0],[0,0.5,0]];resizable=0;movable=0;rotatable=0;deletable=0;editable=0;connectable=0;strokeWidth=2;" parent="1" vertex="1">
                        <mxGeometry x="-1203" y="-505" width="200" height="180" as="geometry"/>
                    </mxCell>
                </object>
                <object placeholders="1" c4Name="Adm User" c4Type="Person" c4Description="The admin user is the logged user who will manage the app settings and content through the roadmaps." label="&lt;font style=&quot;font-size: 16px&quot;&gt;&lt;b&gt;%c4Name%&lt;/b&gt;&lt;/font&gt;&lt;div&gt;[%c4Type%]&lt;/div&gt;&lt;br&gt;&lt;div&gt;&lt;font style=&quot;font-size: 11px&quot;&gt;&lt;font color=&quot;#cccccc&quot;&gt;%c4Description%&lt;/font&gt;&lt;/div&gt;" id="AbpUERWYxR9ucFg2D5k0-60">
                    <mxCell style="html=1;fontSize=11;dashed=0;whiteSpace=wrap;fillColor=#083F75;strokeColor=#06315C;fontColor=#ffffff;shape=mxgraph.c4.person2;align=center;metaEdit=1;points=[[0.5,0,0],[1,0.5,0],[1,0.75,0],[0.75,1,0],[0.5,1,0],[0.25,1,0],[0,0.75,0],[0,0.5,0]];resizable=0;movable=0;rotatable=0;deletable=0;editable=0;connectable=0;strokeWidth=2;" parent="1" vertex="1">
                        <mxGeometry x="-1203" y="-905" width="200" height="180" as="geometry"/>
                    </mxCell>
                </object>
                <object placeholders="1" c4Type="Relationship" c4Description="Views pages;&#10;View, creates, update, and delete their own roadmaps;" label="&lt;div style=&quot;text-align: left&quot;&gt;&lt;div style=&quot;text-align: center&quot;&gt;&lt;b&gt;%c4Description%&lt;/b&gt;&lt;/div&gt;" id="iXL7GdtUrkXsnIHV5VSV-7">
                    <mxCell style="endArrow=blockThin;html=1;fontSize=10;fontColor=#404040;strokeWidth=2;endFill=1;strokeColor=#828282;elbow=vertical;metaEdit=1;endSize=14;startSize=14;jumpStyle=arc;jumpSize=16;rounded=0;edgeStyle=orthogonalEdgeStyle;exitX=1;exitY=0.75;exitDx=0;exitDy=0;exitPerimeter=0;entryX=0;entryY=0.5;entryDx=0;entryDy=0;entryPerimeter=0;movable=0;resizable=0;rotatable=0;deletable=0;editable=0;connectable=0;" parent="1" source="AbpUERWYxR9ucFg2D5k0-2" target="AbpUERWYxR9ucFg2D5k0-3" edge="1">
                        <mxGeometry width="240" relative="1" as="geometry">
                            <mxPoint x="-922" y="-567" as="sourcePoint"/>
                            <mxPoint x="-838" y="-615" as="targetPoint"/>
                        </mxGeometry>
                    </mxCell>
                </object>
                <object placeholders="1" c4Type="Relationship" c4Description="Views pages and admin pages;&#10;View, creates, update, and delete any roadmaps;" label="&lt;div style=&quot;text-align: left&quot;&gt;&lt;div style=&quot;text-align: center&quot;&gt;&lt;b&gt;%c4Description%&lt;/b&gt;&lt;/div&gt;" id="iXL7GdtUrkXsnIHV5VSV-8">
                    <mxCell style="endArrow=blockThin;html=1;fontSize=10;fontColor=#404040;strokeWidth=2;endFill=1;strokeColor=#828282;elbow=vertical;metaEdit=1;endSize=14;startSize=14;jumpStyle=arc;jumpSize=16;rounded=0;edgeStyle=orthogonalEdgeStyle;exitX=1;exitY=0.75;exitDx=0;exitDy=0;exitPerimeter=0;entryX=0.5;entryY=0;entryDx=0;entryDy=0;entryPerimeter=0;movable=0;resizable=0;rotatable=0;deletable=0;editable=0;connectable=0;" parent="1" source="AbpUERWYxR9ucFg2D5k0-60" target="AbpUERWYxR9ucFg2D5k0-3" edge="1">
                        <mxGeometry width="240" relative="1" as="geometry">
                            <mxPoint x="-1008.9999999999998" y="-560" as="sourcePoint"/>
                            <mxPoint x="-700" y="-673" as="targetPoint"/>
                        </mxGeometry>
                    </mxCell>
                </object>
                <object placeholders="1" c4Type="Relationship" c4Description="Visits home and login page;" label="&lt;div style=&quot;text-align: left&quot;&gt;&lt;div style=&quot;text-align: center&quot;&gt;&lt;b&gt;%c4Description%&lt;/b&gt;&lt;/div&gt;" id="iXL7GdtUrkXsnIHV5VSV-9">
                    <mxCell style="endArrow=blockThin;html=1;fontSize=10;fontColor=#404040;strokeWidth=2;endFill=1;strokeColor=#828282;elbow=vertical;metaEdit=1;endSize=14;startSize=14;jumpStyle=arc;jumpSize=16;rounded=0;edgeStyle=orthogonalEdgeStyle;exitX=1;exitY=0.75;exitDx=0;exitDy=0;exitPerimeter=0;entryX=0.5;entryY=1;entryDx=0;entryDy=0;entryPerimeter=0;movable=0;resizable=0;rotatable=0;deletable=0;editable=0;connectable=0;" parent="1" source="AbpUERWYxR9ucFg2D5k0-56" target="AbpUERWYxR9ucFg2D5k0-3" edge="1">
                        <mxGeometry width="240" relative="1" as="geometry">
                            <mxPoint x="-809.0000000000002" y="-740" as="sourcePoint"/>
                            <mxPoint x="-642" y="-620" as="targetPoint"/>
                        </mxGeometry>
                    </mxCell>
                </object>
                <object placeholders="1" c4Name="Authentication system" c4Type="Software System" c4Description="System used for authentication and authorization." label="&lt;font style=&quot;font-size: 16px&quot;&gt;&lt;b&gt;%c4Name%&lt;/b&gt;&lt;/font&gt;&lt;div&gt;[%c4Type%]&lt;/div&gt;&lt;br&gt;&lt;div&gt;&lt;font style=&quot;font-size: 11px&quot;&gt;&lt;font color=&quot;#cccccc&quot;&gt;%c4Description%&lt;/font&gt;&lt;/div&gt;" id="rf2p_1QlKAeIzAPyX5JE-1">
                    <mxCell style="rounded=1;whiteSpace=wrap;html=1;labelBackgroundColor=none;fillColor=#8C8496;fontColor=#ffffff;align=center;arcSize=10;strokeColor=#736782;metaEdit=1;resizable=0;points=[[0.25,0,0],[0.5,0,0],[0.75,0,0],[1,0.25,0],[1,0.5,0],[1,0.75,0],[0.75,1,0],[0.5,1,0],[0.25,1,0],[0,0.75,0],[0,0.5,0],[0,0.25,0]];movable=0;rotatable=0;deletable=0;editable=0;connectable=0;strokeWidth=2;" parent="1" vertex="1">
                        <mxGeometry x="-164" y="-630" width="240" height="120" as="geometry"/>
                    </mxCell>
                </object>
                <object placeholders="1" c4Type="Relationship" c4Description="Log in  on the aplication  using" label="&lt;div style=&quot;text-align: left&quot;&gt;&lt;div style=&quot;text-align: center&quot;&gt;&lt;b&gt;%c4Description%&lt;/b&gt;&lt;/div&gt;" id="rf2p_1QlKAeIzAPyX5JE-2">
                    <mxCell style="endArrow=blockThin;html=1;fontSize=10;fontColor=#404040;strokeWidth=2;endFill=1;strokeColor=#828282;elbow=vertical;metaEdit=1;endSize=14;startSize=14;jumpStyle=arc;jumpSize=16;rounded=0;edgeStyle=orthogonalEdgeStyle;exitX=1;exitY=0.5;exitDx=0;exitDy=0;exitPerimeter=0;entryX=0;entryY=0.5;entryDx=0;entryDy=0;entryPerimeter=0;movable=0;resizable=0;rotatable=0;deletable=0;editable=0;connectable=0;" parent="1" source="AbpUERWYxR9ucFg2D5k0-3" target="rf2p_1QlKAeIzAPyX5JE-1" edge="1">
                        <mxGeometry width="240" relative="1" as="geometry">
                            <mxPoint x="-327" y="-734" as="sourcePoint"/>
                            <mxPoint x="-344" y="-716" as="targetPoint"/>
                        </mxGeometry>
                    </mxCell>
                </object>
                <mxCell id="p1pM9ZnYmbZeiY3vXoen-9" value="Legend" style="align=left;fontSize=16;fontStyle=1;strokeColor=none;fillColor=none;fontColor=#4D4D4D;spacingTop=-8;resizable=0;movable=0;rotatable=0;deletable=0;editable=0;connectable=0;strokeWidth=2;" parent="1" vertex="1">
                    <mxGeometry x="163" y="-942" width="180" height="30" as="geometry"/>
                </mxCell>
                <mxCell id="p1pM9ZnYmbZeiY3vXoen-10" value="" style="shape=table;html=1;whiteSpace=wrap;startSize=0;container=1;collapsible=0;childLayout=tableLayout;fillColor=none;align=left;spacingLeft=10;strokeColor=none;rounded=1;arcSize=11;fontColor=#FFFFFF;resizable=0;points=[[0.25,0,0],[0.5,0,0],[0.75,0,0],[1,0.25,0],[1,0.5,0],[1,0.75,0],[0.75,1,0],[0.5,1,0],[0.25,1,0],[0,0.75,0],[0,0.5,0],[0,0.25,0]];movable=0;rotatable=0;deletable=0;editable=0;connectable=0;strokeWidth=2;" parent="1" vertex="1">
                    <mxGeometry x="163" y="-912" width="180" height="90" as="geometry"/>
                </mxCell>
                <mxCell id="p1pM9ZnYmbZeiY3vXoen-11" value="Person" style="shape=partialRectangle;html=1;whiteSpace=wrap;connectable=0;fillColor=#1E4074;top=0;left=0;bottom=0;right=0;overflow=hidden;pointerEvents=1;align=left;spacingLeft=10;strokeColor=none;fontColor=#FFFFFF;movable=0;resizable=0;rotatable=0;deletable=0;editable=0;strokeWidth=2;" parent="p1pM9ZnYmbZeiY3vXoen-10" vertex="1">
                    <mxGeometry width="180" height="30" as="geometry"/>
                </mxCell>
                <mxCell id="p1pM9ZnYmbZeiY3vXoen-12" value="Software System" style="shape=partialRectangle;html=1;whiteSpace=wrap;connectable=0;fillColor=#3162AF;top=0;left=0;bottom=0;right=0;overflow=hidden;pointerEvents=1;align=left;spacingLeft=10;fontColor=#FFFFFF;movable=0;resizable=0;rotatable=0;deletable=0;editable=0;strokeWidth=2;" parent="p1pM9ZnYmbZeiY3vXoen-10" vertex="1">
                    <mxGeometry y="30" width="180" height="30" as="geometry"/>
                </mxCell>
                <mxCell id="p1pM9ZnYmbZeiY3vXoen-16" value="External Software System" style="shape=partialRectangle;html=1;whiteSpace=wrap;connectable=0;fillColor=#8B8496;top=0;left=0;bottom=0;right=0;overflow=hidden;pointerEvents=1;align=left;spacingLeft=10;fontColor=#FFFFFF;movable=0;resizable=0;rotatable=0;deletable=0;editable=0;strokeWidth=2;" parent="p1pM9ZnYmbZeiY3vXoen-10" vertex="1">
                    <mxGeometry y="60" width="180" height="30" as="geometry"/>
                </mxCell>
            </root>
        </mxGraphModel>
    </diagram>
    <diagram name="C2 model (MVP)" id="SWYgJ27Vz_VIOfEisR7J">
        <mxGraphModel dx="4205" dy="1823" grid="0" gridSize="10" guides="1" tooltips="1" connect="1" arrows="1" fold="1" page="0" pageScale="1" pageWidth="827" pageHeight="1169" math="0" shadow="0">
            <root>
                <mxCell id="LXNYsZAQUB4Kg79s4SmB-0"/>
                <mxCell id="LXNYsZAQUB4Kg79s4SmB-1" parent="LXNYsZAQUB4Kg79s4SmB-0"/>
                <object placeholders="1" c4Name="User" c4Type="Person" c4Description="The user is the logged user who will use the application to track their own skills through the roadmaps." label="&lt;font style=&quot;font-size: 16px&quot;&gt;&lt;b&gt;%c4Name%&lt;/b&gt;&lt;/font&gt;&lt;div&gt;[%c4Type%]&lt;/div&gt;&lt;br&gt;&lt;div&gt;&lt;font style=&quot;font-size: 11px&quot;&gt;&lt;font color=&quot;#cccccc&quot;&gt;%c4Description%&lt;/font&gt;&lt;/div&gt;" id="dG4oGv1b2HfCbnSVpCFT-0">
                    <mxCell style="html=1;fontSize=11;dashed=0;whiteSpace=wrap;fillColor=#083F75;strokeColor=#06315C;fontColor=#ffffff;shape=mxgraph.c4.person2;align=center;metaEdit=1;points=[[0.5,0,0],[1,0.5,0],[1,0.75,0],[0.75,1,0],[0.5,1,0],[0.25,1,0],[0,0.75,0],[0,0.5,0]];resizable=0;strokeWidth=2;movable=0;rotatable=0;deletable=0;editable=0;connectable=0;" parent="LXNYsZAQUB4Kg79s4SmB-1" vertex="1">
                        <mxGeometry x="-1711" y="-809" width="200" height="180" as="geometry"/>
                    </mxCell>
                </object>
                <object placeholders="1" c4Name="Anonymous User" c4Type="Person" c4Description="The anonymous user is anyone who is not logged on the application." label="&lt;font style=&quot;font-size: 16px&quot;&gt;&lt;b&gt;%c4Name%&lt;/b&gt;&lt;/font&gt;&lt;div&gt;[%c4Type%]&lt;/div&gt;&lt;br&gt;&lt;div&gt;&lt;font style=&quot;font-size: 11px&quot;&gt;&lt;font color=&quot;#cccccc&quot;&gt;%c4Description%&lt;/font&gt;&lt;/div&gt;" id="dG4oGv1b2HfCbnSVpCFT-3">
                    <mxCell style="html=1;fontSize=11;dashed=0;whiteSpace=wrap;fillColor=#083F75;strokeColor=#06315C;fontColor=#ffffff;shape=mxgraph.c4.person2;align=center;metaEdit=1;points=[[0.5,0,0],[1,0.5,0],[1,0.75,0],[0.75,1,0],[0.5,1,0],[0.25,1,0],[0,0.75,0],[0,0.5,0]];resizable=0;strokeWidth=2;movable=0;rotatable=0;deletable=0;editable=0;connectable=0;" parent="LXNYsZAQUB4Kg79s4SmB-1" vertex="1">
                        <mxGeometry x="-1711" y="-608" width="200" height="180" as="geometry"/>
                    </mxCell>
                </object>
                <object placeholders="1" c4Name="Adm User" c4Type="Person" c4Description="The admin user is the logged user who will manage the app settings and content through the roadmaps." label="&lt;font style=&quot;font-size: 16px&quot;&gt;&lt;b&gt;%c4Name%&lt;/b&gt;&lt;/font&gt;&lt;div&gt;[%c4Type%]&lt;/div&gt;&lt;br&gt;&lt;div&gt;&lt;font style=&quot;font-size: 11px&quot;&gt;&lt;font color=&quot;#cccccc&quot;&gt;%c4Description%&lt;/font&gt;&lt;/div&gt;" id="dG4oGv1b2HfCbnSVpCFT-4">
                    <mxCell style="html=1;fontSize=11;dashed=0;whiteSpace=wrap;fillColor=#083F75;strokeColor=#06315C;fontColor=#ffffff;shape=mxgraph.c4.person2;align=center;metaEdit=1;points=[[0.5,0,0],[1,0.5,0],[1,0.75,0],[0.75,1,0],[0.5,1,0],[0.25,1,0],[0,0.75,0],[0,0.5,0]];resizable=0;strokeWidth=2;movable=0;rotatable=0;deletable=0;editable=0;connectable=0;" parent="LXNYsZAQUB4Kg79s4SmB-1" vertex="1">
                        <mxGeometry x="-1711" y="-1009" width="200" height="180" as="geometry"/>
                    </mxCell>
                </object>
                <object placeholders="1" c4Type="Relationship" c4Description="Views pages;&#10;View, creates, update, and delete their own roadmaps;" label="&lt;div style=&quot;text-align: left&quot;&gt;&lt;div style=&quot;text-align: center&quot;&gt;&lt;b&gt;%c4Description%&lt;/b&gt;&lt;/div&gt;" id="dG4oGv1b2HfCbnSVpCFT-5">
                    <mxCell style="endArrow=blockThin;html=1;fontSize=10;fontColor=#404040;strokeWidth=2;endFill=1;strokeColor=#828282;elbow=vertical;metaEdit=1;endSize=14;startSize=14;jumpStyle=arc;jumpSize=16;rounded=0;edgeStyle=orthogonalEdgeStyle;exitX=1;exitY=0.75;exitDx=0;exitDy=0;exitPerimeter=0;entryX=0;entryY=0.5;entryDx=0;entryDy=0;entryPerimeter=0;movable=0;resizable=0;rotatable=0;deletable=0;editable=0;connectable=0;" parent="LXNYsZAQUB4Kg79s4SmB-1" source="dG4oGv1b2HfCbnSVpCFT-0" target="dG4oGv1b2HfCbnSVpCFT-10" edge="1">
                        <mxGeometry width="240" relative="1" as="geometry">
                            <mxPoint x="-1062" y="-647" as="sourcePoint"/>
                            <mxPoint x="-784" y="-650" as="targetPoint"/>
                        </mxGeometry>
                    </mxCell>
                </object>
                <object placeholders="1" c4Type="Relationship" c4Description="Views pages and admin pages;&#10;View, creates, update, and delete any roadmaps;" label="&lt;div style=&quot;text-align: left&quot;&gt;&lt;div style=&quot;text-align: center&quot;&gt;&lt;b&gt;%c4Description%&lt;/b&gt;&lt;/div&gt;" id="dG4oGv1b2HfCbnSVpCFT-6">
                    <mxCell style="endArrow=blockThin;html=1;fontSize=10;fontColor=#404040;strokeWidth=2;endFill=1;strokeColor=#828282;elbow=vertical;metaEdit=1;endSize=14;startSize=14;jumpStyle=arc;jumpSize=16;rounded=0;edgeStyle=orthogonalEdgeStyle;exitX=1;exitY=0.75;exitDx=0;exitDy=0;exitPerimeter=0;entryX=0.5;entryY=0;entryDx=0;entryDy=0;entryPerimeter=0;movable=0;resizable=0;rotatable=0;deletable=0;editable=0;connectable=0;" parent="LXNYsZAQUB4Kg79s4SmB-1" source="dG4oGv1b2HfCbnSVpCFT-4" target="dG4oGv1b2HfCbnSVpCFT-10" edge="1">
                        <mxGeometry width="240" relative="1" as="geometry">
                            <mxPoint x="-1148.9999999999998" y="-640" as="sourcePoint"/>
                            <mxPoint x="-664" y="-710" as="targetPoint"/>
                        </mxGeometry>
                    </mxCell>
                </object>
                <object placeholders="1" c4Type="Relationship" c4Description="Visits home and login page;" label="&lt;div style=&quot;text-align: left&quot;&gt;&lt;div style=&quot;text-align: center&quot;&gt;&lt;b&gt;%c4Description%&lt;/b&gt;&lt;/div&gt;" id="dG4oGv1b2HfCbnSVpCFT-7">
                    <mxCell style="endArrow=blockThin;html=1;fontSize=10;fontColor=#404040;strokeWidth=2;endFill=1;strokeColor=#828282;elbow=vertical;metaEdit=1;endSize=14;startSize=14;jumpStyle=arc;jumpSize=16;rounded=0;edgeStyle=orthogonalEdgeStyle;exitX=1;exitY=0.75;exitDx=0;exitDy=0;exitPerimeter=0;entryX=0.521;entryY=0.994;entryDx=0;entryDy=0;entryPerimeter=0;movable=0;resizable=0;rotatable=0;deletable=0;editable=0;connectable=0;" parent="LXNYsZAQUB4Kg79s4SmB-1" source="dG4oGv1b2HfCbnSVpCFT-3" target="dG4oGv1b2HfCbnSVpCFT-10" edge="1">
                        <mxGeometry width="240" relative="1" as="geometry">
                            <mxPoint x="-949.0000000000002" y="-820" as="sourcePoint"/>
                            <mxPoint x="-664" y="-590" as="targetPoint"/>
                            <Array as="points">
                                <mxPoint x="-1045" y="-483"/>
                            </Array>
                        </mxGeometry>
                    </mxCell>
                </object>
                <object placeholders="1" c4Name="Authentication system" c4Type="Software System" c4Description="System used for authentication and authorization." label="&lt;font style=&quot;font-size: 16px&quot;&gt;&lt;b&gt;%c4Name%&lt;/b&gt;&lt;/font&gt;&lt;div&gt;[%c4Type%]&lt;/div&gt;&lt;br&gt;&lt;div&gt;&lt;font style=&quot;font-size: 11px&quot;&gt;&lt;font color=&quot;#cccccc&quot;&gt;%c4Description%&lt;/font&gt;&lt;/div&gt;" id="dG4oGv1b2HfCbnSVpCFT-8">
                    <mxCell style="rounded=1;whiteSpace=wrap;html=1;labelBackgroundColor=none;fillColor=#8C8496;fontColor=#ffffff;align=center;arcSize=10;strokeColor=#736782;metaEdit=1;resizable=0;points=[[0.25,0,0],[0.5,0,0],[0.75,0,0],[1,0.25,0],[1,0.5,0],[1,0.75,0],[0.75,1,0],[0.5,1,0],[0.25,1,0],[0,0.75,0],[0,0.5,0],[0,0.25,0]];strokeWidth=2;movable=0;rotatable=0;deletable=0;editable=0;connectable=0;" parent="LXNYsZAQUB4Kg79s4SmB-1" vertex="1">
                        <mxGeometry x="-740" y="-397" width="240" height="120" as="geometry"/>
                    </mxCell>
                </object>
                <object placeholders="1" c4Type="Single-Page Application" c4Container="Container" c4Technology="Functional React" c4Description="Roadmap web page containing all functionality to users in their browser." label="&lt;font style=&quot;font-size: 16px&quot;&gt;&lt;b&gt;%c4Type%&lt;/b&gt;&lt;/font&gt;&lt;div&gt;[%c4Container%:&amp;nbsp;%c4Technology%]&lt;/div&gt;&lt;br&gt;&lt;div&gt;&lt;font style=&quot;font-size: 11px&quot;&gt;&lt;font color=&quot;#E6E6E6&quot;&gt;%c4Description%&lt;/font&gt;&lt;/div&gt;" id="dG4oGv1b2HfCbnSVpCFT-10">
                    <mxCell style="shape=mxgraph.c4.webBrowserContainer2;whiteSpace=wrap;html=1;boundedLbl=1;rounded=0;labelBackgroundColor=none;strokeColor=#118ACD;fillColor=#23A2D9;strokeColor=#118ACD;strokeColor2=#0E7DAD;fontSize=12;fontColor=#ffffff;align=center;metaEdit=1;points=[[0.5,0,0],[1,0.25,0],[1,0.5,0],[1,0.75,0],[0.5,1,0],[0,0.75,0],[0,0.5,0],[0,0.25,0]];resizable=0;strokeWidth=2;movable=0;rotatable=0;deletable=0;editable=0;connectable=0;" parent="LXNYsZAQUB4Kg79s4SmB-1" vertex="1">
                        <mxGeometry x="-1170" y="-754" width="240" height="160" as="geometry"/>
                    </mxCell>
                </object>
                <object placeholders="1" c4Name="C2 MVP" c4Type="ScopeBoundary" c4Application="Scope" label="&lt;font style=&quot;font-size: 16px&quot;&gt;&lt;b&gt;&lt;div style=&quot;text-align: left&quot;&gt;%c4Name%&lt;/div&gt;&lt;/b&gt;&lt;/font&gt;&lt;div style=&quot;text-align: left&quot;&gt;[%c4Application%]&lt;/div&gt;" id="dG4oGv1b2HfCbnSVpCFT-12">
                    <mxCell style="rounded=1;fontSize=11;whiteSpace=wrap;html=1;dashed=1;arcSize=20;fillColor=none;strokeColor=#666666;fontColor=#333333;labelBackgroundColor=none;align=left;verticalAlign=bottom;labelBorderColor=none;spacingTop=0;spacing=10;dashPattern=8 4;metaEdit=1;rotatable=0;perimeter=rectanglePerimeter;noLabel=0;labelPadding=0;allowArrows=0;connectable=0;expand=0;recursiveResize=0;editable=0;pointerEvents=0;absoluteArcSize=1;points=[[0.25,0,0],[0.5,0,0],[0.75,0,0],[1,0.25,0],[1,0.5,0],[1,0.75,0],[0.75,1,0],[0.5,1,0],[0.25,1,0],[0,0.75,0],[0,0.5,0],[0,0.25,0]];strokeWidth=2;movable=0;resizable=0;deletable=0;" parent="LXNYsZAQUB4Kg79s4SmB-1" vertex="1">
                        <mxGeometry x="-1767" y="-1064" width="1773" height="813" as="geometry"/>
                    </mxCell>
                </object>
                <object placeholders="1" c4Name="API application" c4Type="Container" c4Technology="e.g. SpringBoot" c4Description="Provides all roadmaps functionality via JSON/HTTPS API" label="&lt;font style=&quot;font-size: 16px&quot;&gt;&lt;b&gt;%c4Name%&lt;/b&gt;&lt;/font&gt;&lt;div&gt;[%c4Type%: %c4Technology%]&lt;/div&gt;&lt;br&gt;&lt;div&gt;&lt;font style=&quot;font-size: 11px&quot;&gt;&lt;font color=&quot;#E6E6E6&quot;&gt;%c4Description%&lt;/font&gt;&lt;/div&gt;" id="5cg3aInFyl-BAyfmOdwB-1">
                    <mxCell style="rounded=1;whiteSpace=wrap;html=1;fontSize=11;labelBackgroundColor=none;fillColor=#23A2D9;fontColor=#ffffff;align=center;arcSize=10;strokeColor=#0E7DAD;metaEdit=1;resizable=0;points=[[0.25,0,0],[0.5,0,0],[0.75,0,0],[1,0.25,0],[1,0.5,0],[1,0.75,0],[0.75,1,0],[0.5,1,0],[0.25,1,0],[0,0.75,0],[0,0.5,0],[0,0.25,0]];strokeWidth=2;movable=0;rotatable=0;deletable=0;editable=0;connectable=0;" parent="LXNYsZAQUB4Kg79s4SmB-1" vertex="1">
                        <mxGeometry x="-740" y="-734" width="240" height="120" as="geometry"/>
                    </mxCell>
                </object>
                <object placeholders="1" c4Type="Relationship" c4Technology="JSON/HTTP" c4Description="Makes API calls" label="&lt;div style=&quot;text-align: left&quot;&gt;&lt;div style=&quot;text-align: center&quot;&gt;&lt;b&gt;%c4Description%&lt;/b&gt;&lt;/div&gt;&lt;div style=&quot;text-align: center&quot;&gt;[%c4Technology%]&lt;/div&gt;&lt;/div&gt;" id="5cg3aInFyl-BAyfmOdwB-4">
                    <mxCell style="endArrow=blockThin;html=1;fontSize=10;fontColor=#404040;strokeWidth=2;endFill=1;strokeColor=#828282;elbow=vertical;metaEdit=1;endSize=14;startSize=14;jumpStyle=arc;jumpSize=16;rounded=0;edgeStyle=orthogonalEdgeStyle;exitX=1;exitY=0.5;exitDx=0;exitDy=0;exitPerimeter=0;entryX=0;entryY=0.5;entryDx=0;entryDy=0;entryPerimeter=0;movable=0;resizable=0;rotatable=0;deletable=0;editable=0;connectable=0;" parent="LXNYsZAQUB4Kg79s4SmB-1" source="dG4oGv1b2HfCbnSVpCFT-10" target="5cg3aInFyl-BAyfmOdwB-1" edge="1">
                        <mxGeometry width="240" relative="1" as="geometry">
                            <mxPoint x="-878" y="-514" as="sourcePoint"/>
                            <mxPoint x="-838" y="-572" as="targetPoint"/>
                        </mxGeometry>
                    </mxCell>
                </object>
                <object placeholders="1" c4Type="Relationship" c4Technology="JSON/HTTP" c4Description="Makes API calls" label="&lt;div style=&quot;text-align: left&quot;&gt;&lt;div style=&quot;text-align: center&quot;&gt;&lt;b&gt;%c4Description%&lt;/b&gt;&lt;/div&gt;&lt;div style=&quot;text-align: center&quot;&gt;[%c4Technology%]&lt;/div&gt;&lt;/div&gt;" id="_BC6KOuKZL4KgvbKZmdK-2">
                    <mxCell style="endArrow=blockThin;html=1;fontSize=10;fontColor=#404040;strokeWidth=2;endFill=1;strokeColor=#828282;elbow=vertical;metaEdit=1;endSize=14;startSize=14;jumpStyle=arc;jumpSize=16;rounded=0;edgeStyle=orthogonalEdgeStyle;exitX=0.5;exitY=1;exitDx=0;exitDy=0;exitPerimeter=0;entryX=0.5;entryY=0;entryDx=0;entryDy=0;entryPerimeter=0;movable=0;resizable=0;rotatable=0;deletable=0;editable=0;connectable=0;" parent="LXNYsZAQUB4Kg79s4SmB-1" source="5cg3aInFyl-BAyfmOdwB-1" target="dG4oGv1b2HfCbnSVpCFT-8" edge="1">
                        <mxGeometry width="240" relative="1" as="geometry">
                            <mxPoint x="-726" y="-534" as="sourcePoint"/>
                            <mxPoint x="-486" y="-534" as="targetPoint"/>
                        </mxGeometry>
                    </mxCell>
                </object>
                <object placeholders="1" c4Name="Skill Tracking" c4Type="SoftwareSystemScopeBoundary" c4Application="Software System" label="&lt;font style=&quot;font-size: 16px&quot;&gt;&lt;b&gt;&lt;div style=&quot;text-align: left&quot;&gt;%c4Name%&lt;/div&gt;&lt;/b&gt;&lt;/font&gt;&lt;div style=&quot;text-align: left&quot;&gt;[%c4Application%]&lt;/div&gt;" id="lXqP1OFizYLqbcTMikh1-0">
                    <mxCell style="rounded=1;fontSize=11;whiteSpace=wrap;html=1;dashed=1;arcSize=20;fillColor=none;strokeColor=#3162AF;fontColor=#333333;labelBackgroundColor=none;align=left;verticalAlign=bottom;labelBorderColor=none;spacingTop=0;spacing=10;dashPattern=8 4;metaEdit=1;rotatable=0;perimeter=rectanglePerimeter;noLabel=0;labelPadding=0;allowArrows=0;connectable=0;expand=0;recursiveResize=0;editable=0;pointerEvents=0;absoluteArcSize=1;points=[[0.25,0,0],[0.5,0,0],[0.75,0,0],[1,0.25,0],[1,0.5,0],[1,0.75,0],[0.75,1,0],[0.5,1,0],[0.25,1,0],[0,0.75,0],[0,0.5,0],[0,0.25,0]];strokeWidth=2;movable=0;resizable=0;deletable=0;" parent="LXNYsZAQUB4Kg79s4SmB-1" vertex="1">
                        <mxGeometry x="-1204" y="-813" width="1173" height="285" as="geometry"/>
                    </mxCell>
                </object>
                <object placeholders="1" c4Type="Database" c4Container="Container" c4Technology="e.g. PostgreSQL" c4Description="Stores user credentials, access logs, information, skills, roadmaps , etc." label="&lt;font style=&quot;font-size: 16px&quot;&gt;&lt;b&gt;%c4Type%&lt;/b&gt;&lt;/font&gt;&lt;div&gt;[%c4Container%:&amp;nbsp;%c4Technology%]&lt;/div&gt;&lt;br&gt;&lt;div&gt;&lt;font style=&quot;font-size: 11px&quot;&gt;&lt;font color=&quot;#E6E6E6&quot;&gt;%c4Description%&lt;/font&gt;&lt;/div&gt;" id="lXqP1OFizYLqbcTMikh1-1">
                    <mxCell style="shape=cylinder3;size=15;whiteSpace=wrap;html=1;boundedLbl=1;rounded=0;labelBackgroundColor=none;fillColor=#23A2D9;fontSize=12;fontColor=#ffffff;align=center;strokeColor=#0E7DAD;metaEdit=1;points=[[0.5,0,0],[1,0.25,0],[1,0.5,0],[1,0.75,0],[0.5,1,0],[0,0.75,0],[0,0.5,0],[0,0.25,0]];resizable=0;strokeWidth=2;movable=0;rotatable=0;deletable=0;editable=0;connectable=0;" parent="LXNYsZAQUB4Kg79s4SmB-1" vertex="1">
                        <mxGeometry x="-313" y="-734" width="240" height="120" as="geometry"/>
                    </mxCell>
                </object>
                <object placeholders="1" c4Type="Relationship" c4Technology="SQL/TCP" c4Description="Reads from and writes to" label="&lt;div style=&quot;text-align: left&quot;&gt;&lt;div style=&quot;text-align: center&quot;&gt;&lt;b&gt;%c4Description%&lt;/b&gt;&lt;/div&gt;&lt;div style=&quot;text-align: center&quot;&gt;[%c4Technology%]&lt;/div&gt;&lt;/div&gt;" id="lXqP1OFizYLqbcTMikh1-3">
                    <mxCell style="endArrow=blockThin;html=1;fontSize=10;fontColor=#404040;strokeWidth=2;endFill=1;strokeColor=#828282;elbow=vertical;metaEdit=1;endSize=14;startSize=14;jumpStyle=arc;jumpSize=16;rounded=0;edgeStyle=orthogonalEdgeStyle;exitX=1;exitY=0.5;exitDx=0;exitDy=0;exitPerimeter=0;entryX=0;entryY=0.5;entryDx=0;entryDy=0;entryPerimeter=0;movable=0;resizable=0;rotatable=0;deletable=0;editable=0;connectable=0;" parent="LXNYsZAQUB4Kg79s4SmB-1" source="5cg3aInFyl-BAyfmOdwB-1" target="lXqP1OFizYLqbcTMikh1-1" edge="1">
                        <mxGeometry width="240" relative="1" as="geometry">
                            <mxPoint x="-854" y="-686" as="sourcePoint"/>
                            <mxPoint x="-614" y="-686" as="targetPoint"/>
                        </mxGeometry>
                    </mxCell>
                </object>
                <mxCell id="qCsbU0hNoqxA6bklY5KL-0" value="Legend" style="align=left;fontSize=16;fontStyle=1;strokeColor=none;fillColor=none;fontColor=#4D4D4D;spacingTop=-8;resizable=0;strokeWidth=2;movable=0;rotatable=0;deletable=0;editable=0;connectable=0;" parent="LXNYsZAQUB4Kg79s4SmB-1" vertex="1">
                    <mxGeometry x="30" y="-1060" width="180" height="30" as="geometry"/>
                </mxCell>
                <mxCell id="qCsbU0hNoqxA6bklY5KL-1" value="" style="shape=table;html=1;whiteSpace=wrap;startSize=0;container=1;collapsible=0;childLayout=tableLayout;fillColor=none;align=left;spacingLeft=10;strokeColor=none;rounded=1;arcSize=11;fontColor=#FFFFFF;resizable=0;points=[[0.25,0,0],[0.5,0,0],[0.75,0,0],[1,0.25,0],[1,0.5,0],[1,0.75,0],[0.75,1,0],[0.5,1,0],[0.25,1,0],[0,0.75,0],[0,0.5,0],[0,0.25,0]];strokeWidth=2;movable=0;rotatable=0;deletable=0;editable=0;connectable=0;" parent="LXNYsZAQUB4Kg79s4SmB-1" vertex="1">
                    <mxGeometry x="30" y="-1030" width="180" height="90" as="geometry"/>
                </mxCell>
                <mxCell id="qCsbU0hNoqxA6bklY5KL-2" value="Person" style="shape=partialRectangle;html=1;whiteSpace=wrap;connectable=0;fillColor=#1E4074;top=0;left=0;bottom=0;right=0;overflow=hidden;pointerEvents=1;align=left;spacingLeft=10;strokeColor=none;fontColor=#FFFFFF;strokeWidth=2;movable=0;resizable=0;rotatable=0;deletable=0;editable=0;" parent="qCsbU0hNoqxA6bklY5KL-1" vertex="1">
                    <mxGeometry width="180" height="30" as="geometry"/>
                </mxCell>
                <mxCell id="qCsbU0hNoqxA6bklY5KL-4" value="Container" style="shape=partialRectangle;html=1;whiteSpace=wrap;connectable=0;fillColor=#52A2D8;top=0;left=0;bottom=0;right=0;overflow=hidden;pointerEvents=1;align=left;spacingLeft=10;fontColor=#FFFFFF;strokeWidth=2;movable=0;resizable=0;rotatable=0;deletable=0;editable=0;" parent="qCsbU0hNoqxA6bklY5KL-1" vertex="1">
                    <mxGeometry y="30" width="180" height="30" as="geometry"/>
                </mxCell>
                <mxCell id="qCsbU0hNoqxA6bklY5KL-7" value="External Software System" style="shape=partialRectangle;html=1;whiteSpace=wrap;connectable=0;fillColor=#8B8496;top=0;left=0;bottom=0;right=0;overflow=hidden;pointerEvents=1;align=left;spacingLeft=10;fontColor=#FFFFFF;strokeWidth=2;movable=0;resizable=0;rotatable=0;deletable=0;editable=0;" parent="qCsbU0hNoqxA6bklY5KL-1" vertex="1">
                    <mxGeometry y="60" width="180" height="30" as="geometry"/>
                </mxCell>
            </root>
        </mxGraphModel>
    </diagram>
    <diagram name="C3 model (MVP)" id="1QE1TQMiCPRZIgYBIdSG">
        <mxGraphModel dx="2707" dy="1654" grid="0" gridSize="10" guides="1" tooltips="1" connect="1" arrows="1" fold="1" page="0" pageScale="1" pageWidth="827" pageHeight="1169" math="0" shadow="0">
            <root>
                <mxCell id="39T0jwed-VUf1nxWEC5t-0"/>
                <mxCell id="39T0jwed-VUf1nxWEC5t-1" parent="39T0jwed-VUf1nxWEC5t-0"/>
                <object placeholders="1" c4Name="User" c4Type="Person" c4Description="The user is the logged user who will use the application to track their own skills through the roadmaps." label="&lt;font style=&quot;font-size: 16px&quot;&gt;&lt;b&gt;%c4Name%&lt;/b&gt;&lt;/font&gt;&lt;div&gt;[%c4Type%]&lt;/div&gt;&lt;br&gt;&lt;div&gt;&lt;font style=&quot;font-size: 11px&quot;&gt;&lt;font color=&quot;#cccccc&quot;&gt;%c4Description%&lt;/font&gt;&lt;/div&gt;" id="39T0jwed-VUf1nxWEC5t-2">
                    <mxCell style="html=1;fontSize=11;dashed=0;whiteSpace=wrap;fillColor=#083F75;strokeColor=#06315C;fontColor=#ffffff;shape=mxgraph.c4.person2;align=center;metaEdit=1;points=[[0.5,0,0],[1,0.5,0],[1,0.75,0],[0.75,1,0],[0.5,1,0],[0.25,1,0],[0,0.75,0],[0,0.5,0]];resizable=0;strokeWidth=2;movable=0;rotatable=0;deletable=0;editable=0;connectable=0;" parent="39T0jwed-VUf1nxWEC5t-1" vertex="1">
                        <mxGeometry x="-1871" y="-809" width="200" height="180" as="geometry"/>
                    </mxCell>
                </object>
                <object placeholders="1" c4Name="Anonymous User" c4Type="Person" c4Description="The anonymous user is anyone who is not logged on the application." label="&lt;font style=&quot;font-size: 16px&quot;&gt;&lt;b&gt;%c4Name%&lt;/b&gt;&lt;/font&gt;&lt;div&gt;[%c4Type%]&lt;/div&gt;&lt;br&gt;&lt;div&gt;&lt;font style=&quot;font-size: 11px&quot;&gt;&lt;font color=&quot;#cccccc&quot;&gt;%c4Description%&lt;/font&gt;&lt;/div&gt;" id="39T0jwed-VUf1nxWEC5t-3">
                    <mxCell style="html=1;fontSize=11;dashed=0;whiteSpace=wrap;fillColor=#083F75;strokeColor=#06315C;fontColor=#ffffff;shape=mxgraph.c4.person2;align=center;metaEdit=1;points=[[0.5,0,0],[1,0.5,0],[1,0.75,0],[0.75,1,0],[0.5,1,0],[0.25,1,0],[0,0.75,0],[0,0.5,0]];resizable=0;strokeWidth=2;movable=0;rotatable=0;deletable=0;editable=0;connectable=0;" parent="39T0jwed-VUf1nxWEC5t-1" vertex="1">
                        <mxGeometry x="-1871" y="-608" width="200" height="180" as="geometry"/>
                    </mxCell>
                </object>
                <object placeholders="1" c4Name="Adm User" c4Type="Person" c4Description="The admin user is the logged user who will manage the app settings and content through the roadmaps." label="&lt;font style=&quot;font-size: 16px&quot;&gt;&lt;b&gt;%c4Name%&lt;/b&gt;&lt;/font&gt;&lt;div&gt;[%c4Type%]&lt;/div&gt;&lt;br&gt;&lt;div&gt;&lt;font style=&quot;font-size: 11px&quot;&gt;&lt;font color=&quot;#cccccc&quot;&gt;%c4Description%&lt;/font&gt;&lt;/div&gt;" id="39T0jwed-VUf1nxWEC5t-4">
                    <mxCell style="html=1;fontSize=11;dashed=0;whiteSpace=wrap;fillColor=#083F75;strokeColor=#06315C;fontColor=#ffffff;shape=mxgraph.c4.person2;align=center;metaEdit=1;points=[[0.5,0,0],[1,0.5,0],[1,0.75,0],[0.75,1,0],[0.5,1,0],[0.25,1,0],[0,0.75,0],[0,0.5,0]];resizable=0;strokeWidth=2;movable=0;rotatable=0;deletable=0;editable=0;connectable=0;" parent="39T0jwed-VUf1nxWEC5t-1" vertex="1">
                        <mxGeometry x="-1871" y="-1009" width="200" height="180" as="geometry"/>
                    </mxCell>
                </object>
                <object placeholders="1" c4Type="Relationship" c4Description="Views pages;&#10;View, creates, update, and delete their own roadmaps;" label="&lt;div style=&quot;text-align: left&quot;&gt;&lt;div style=&quot;text-align: center&quot;&gt;&lt;b&gt;%c4Description%&lt;/b&gt;&lt;/div&gt;" id="39T0jwed-VUf1nxWEC5t-5">
                    <mxCell style="endArrow=blockThin;html=1;fontSize=10;fontColor=#404040;strokeWidth=2;endFill=1;strokeColor=#828282;elbow=vertical;metaEdit=1;endSize=14;startSize=14;jumpStyle=arc;jumpSize=16;rounded=0;edgeStyle=orthogonalEdgeStyle;exitX=1;exitY=0.75;exitDx=0;exitDy=0;exitPerimeter=0;entryX=0;entryY=0.5;entryDx=0;entryDy=0;entryPerimeter=0;movable=0;resizable=0;rotatable=0;deletable=0;editable=0;connectable=0;" parent="39T0jwed-VUf1nxWEC5t-1" source="39T0jwed-VUf1nxWEC5t-2" target="a1scxqDBa0EgdVLqmRlR-1" edge="1">
                        <mxGeometry width="240" relative="1" as="geometry">
                            <mxPoint x="-1062" y="-647" as="sourcePoint"/>
                            <mxPoint x="-784" y="-650" as="targetPoint"/>
                        </mxGeometry>
                    </mxCell>
                </object>
                <object placeholders="1" c4Type="Relationship" c4Description="Views pages and admin pages;&#10;View, creates, update, and delete any roadmaps;" label="&lt;div style=&quot;text-align: left&quot;&gt;&lt;div style=&quot;text-align: center&quot;&gt;&lt;b&gt;%c4Description%&lt;/b&gt;&lt;/div&gt;" id="39T0jwed-VUf1nxWEC5t-6">
                    <mxCell style="endArrow=blockThin;html=1;fontSize=10;fontColor=#404040;strokeWidth=2;endFill=1;strokeColor=#828282;elbow=vertical;metaEdit=1;endSize=14;startSize=14;jumpStyle=arc;jumpSize=16;rounded=0;edgeStyle=orthogonalEdgeStyle;exitX=1;exitY=0.75;exitDx=0;exitDy=0;exitPerimeter=0;entryX=0;entryY=0.25;entryDx=0;entryDy=0;entryPerimeter=0;movable=0;resizable=0;rotatable=0;deletable=0;editable=0;connectable=0;" parent="39T0jwed-VUf1nxWEC5t-1" source="39T0jwed-VUf1nxWEC5t-4" target="a1scxqDBa0EgdVLqmRlR-1" edge="1">
                        <mxGeometry width="240" relative="1" as="geometry">
                            <mxPoint x="-1148.9999999999998" y="-640" as="sourcePoint"/>
                            <mxPoint x="-664" y="-710" as="targetPoint"/>
                        </mxGeometry>
                    </mxCell>
                </object>
                <object placeholders="1" c4Type="Relationship" c4Description="Visits home and login page;" label="&lt;div style=&quot;text-align: left&quot;&gt;&lt;div style=&quot;text-align: center&quot;&gt;&lt;b&gt;%c4Description%&lt;/b&gt;&lt;/div&gt;" id="39T0jwed-VUf1nxWEC5t-7">
                    <mxCell style="endArrow=blockThin;html=1;fontSize=10;fontColor=#404040;strokeWidth=2;endFill=1;strokeColor=#828282;elbow=vertical;metaEdit=1;endSize=14;startSize=14;jumpStyle=arc;jumpSize=16;rounded=0;edgeStyle=orthogonalEdgeStyle;exitX=1;exitY=0.75;exitDx=0;exitDy=0;exitPerimeter=0;entryX=0;entryY=0.75;entryDx=0;entryDy=0;entryPerimeter=0;movable=0;resizable=0;rotatable=0;deletable=0;editable=0;connectable=0;" parent="39T0jwed-VUf1nxWEC5t-1" source="39T0jwed-VUf1nxWEC5t-3" target="a1scxqDBa0EgdVLqmRlR-1" edge="1">
                        <mxGeometry width="240" relative="1" as="geometry">
                            <mxPoint x="-949.0000000000002" y="-820" as="sourcePoint"/>
                            <mxPoint x="-664" y="-590" as="targetPoint"/>
                            <Array as="points">
                                <mxPoint x="-1411" y="-473"/>
                                <mxPoint x="-1411" y="-644"/>
                            </Array>
                        </mxGeometry>
                    </mxCell>
                </object>
                <object placeholders="1" c4Name="Authentication system" c4Type="Software System" c4Description="System used for authentication and authorization." label="&lt;font style=&quot;font-size: 16px&quot;&gt;&lt;b&gt;%c4Name%&lt;/b&gt;&lt;/font&gt;&lt;div&gt;[%c4Type%]&lt;/div&gt;&lt;br&gt;&lt;div&gt;&lt;font style=&quot;font-size: 11px&quot;&gt;&lt;font color=&quot;#cccccc&quot;&gt;%c4Description%&lt;/font&gt;&lt;/div&gt;" id="39T0jwed-VUf1nxWEC5t-8">
                    <mxCell style="rounded=1;whiteSpace=wrap;html=1;labelBackgroundColor=none;fillColor=#8C8496;fontColor=#ffffff;align=center;arcSize=10;strokeColor=#736782;metaEdit=1;resizable=0;points=[[0.25,0,0],[0.5,0,0],[0.75,0,0],[1,0.25,0],[1,0.5,0],[1,0.75,0],[0.75,1,0],[0.5,1,0],[0.25,1,0],[0,0.75,0],[0,0.5,0],[0,0.25,0]];strokeWidth=2;movable=0;rotatable=0;deletable=0;editable=0;connectable=0;" parent="39T0jwed-VUf1nxWEC5t-1" vertex="1">
                        <mxGeometry x="-612" y="353" width="240" height="120" as="geometry"/>
                    </mxCell>
                </object>
                <object placeholders="1" c4Name="C2 MVP" c4Type="ScopeBoundary" c4Application="Scope" label="&lt;font style=&quot;font-size: 16px&quot;&gt;&lt;b&gt;&lt;div style=&quot;text-align: left&quot;&gt;%c4Name%&lt;/div&gt;&lt;/b&gt;&lt;/font&gt;&lt;div style=&quot;text-align: left&quot;&gt;[%c4Application%]&lt;/div&gt;" id="39T0jwed-VUf1nxWEC5t-10">
                    <mxCell style="rounded=1;fontSize=11;whiteSpace=wrap;html=1;dashed=1;arcSize=20;fillColor=none;strokeColor=#666666;fontColor=#333333;labelBackgroundColor=none;align=left;verticalAlign=bottom;labelBorderColor=none;spacingTop=0;spacing=10;dashPattern=8 4;metaEdit=1;rotatable=0;perimeter=rectanglePerimeter;noLabel=0;labelPadding=0;allowArrows=0;connectable=0;expand=0;recursiveResize=0;editable=0;pointerEvents=0;absoluteArcSize=1;points=[[0.25,0,0],[0.5,0,0],[0.75,0,0],[1,0.25,0],[1,0.5,0],[1,0.75,0],[0.75,1,0],[0.5,1,0],[0.25,1,0],[0,0.75,0],[0,0.5,0],[0,0.25,0]];strokeWidth=2;movable=0;resizable=0;deletable=0;" parent="39T0jwed-VUf1nxWEC5t-1" vertex="1">
                        <mxGeometry x="-1928" y="-1065" width="2389" height="1580" as="geometry"/>
                    </mxCell>
                </object>
                <object placeholders="1" c4Type="Relationship" c4Technology="JSON/HTTP" c4Description="Makes API calls" label="&lt;div style=&quot;text-align: left&quot;&gt;&lt;div style=&quot;text-align: center&quot;&gt;&lt;b&gt;%c4Description%&lt;/b&gt;&lt;/div&gt;&lt;div style=&quot;text-align: center&quot;&gt;[%c4Technology%]&lt;/div&gt;&lt;/div&gt;" id="39T0jwed-VUf1nxWEC5t-12">
                    <mxCell style="endArrow=blockThin;html=1;fontSize=10;fontColor=#404040;strokeWidth=2;endFill=1;strokeColor=#828282;elbow=vertical;metaEdit=1;endSize=14;startSize=14;jumpStyle=arc;jumpSize=16;rounded=0;edgeStyle=orthogonalEdgeStyle;exitX=1;exitY=0.75;exitDx=0;exitDy=0;exitPerimeter=0;entryX=0.5;entryY=0;entryDx=0;entryDy=0;entryPerimeter=0;movable=0;resizable=0;rotatable=0;deletable=0;editable=0;connectable=0;" parent="39T0jwed-VUf1nxWEC5t-1" source="a1scxqDBa0EgdVLqmRlR-4" target="a1scxqDBa0EgdVLqmRlR-6" edge="1">
                        <mxGeometry width="240" relative="1" as="geometry">
                            <mxPoint x="-910" y="-674" as="sourcePoint"/>
                            <mxPoint x="-838" y="-572" as="targetPoint"/>
                            <Array as="points">
                                <mxPoint x="-732" y="59"/>
                                <mxPoint x="-732" y="-818"/>
                                <mxPoint x="-490" y="-818"/>
                            </Array>
                        </mxGeometry>
                    </mxCell>
                </object>
                <object placeholders="1" c4Type="Relationship" c4Technology="JSON/HTTP" c4Description="Makes API calls" label="&lt;div style=&quot;text-align: left&quot;&gt;&lt;div style=&quot;text-align: center&quot;&gt;&lt;b&gt;%c4Description%&lt;/b&gt;&lt;/div&gt;&lt;div style=&quot;text-align: center&quot;&gt;[%c4Technology%]&lt;/div&gt;&lt;/div&gt;" id="39T0jwed-VUf1nxWEC5t-13">
                    <mxCell style="endArrow=blockThin;html=1;fontSize=10;fontColor=#404040;strokeWidth=2;endFill=1;strokeColor=#828282;elbow=vertical;metaEdit=1;endSize=14;startSize=14;jumpStyle=arc;jumpSize=16;rounded=0;edgeStyle=orthogonalEdgeStyle;exitX=0.5;exitY=1;exitDx=0;exitDy=0;exitPerimeter=0;entryX=0.5;entryY=0;entryDx=0;entryDy=0;entryPerimeter=0;movable=0;resizable=0;rotatable=0;deletable=0;editable=0;connectable=0;" parent="39T0jwed-VUf1nxWEC5t-1" source="a1scxqDBa0EgdVLqmRlR-9" target="39T0jwed-VUf1nxWEC5t-8" edge="1">
                        <mxGeometry width="240" relative="1" as="geometry">
                            <mxPoint x="-520" y="-155" as="sourcePoint"/>
                            <mxPoint x="-386" y="-534" as="targetPoint"/>
                        </mxGeometry>
                    </mxCell>
                </object>
                <object placeholders="1" c4Name="Skill Tracking" c4Type="SoftwareSystemScopeBoundary" c4Application="Software System" label="&lt;font style=&quot;font-size: 16px&quot;&gt;&lt;b&gt;&lt;div style=&quot;text-align: left&quot;&gt;%c4Name%&lt;/div&gt;&lt;/b&gt;&lt;/font&gt;&lt;div style=&quot;text-align: left&quot;&gt;[%c4Application%]&lt;/div&gt;" id="39T0jwed-VUf1nxWEC5t-14">
                    <mxCell style="rounded=1;fontSize=11;whiteSpace=wrap;html=1;dashed=1;arcSize=20;fillColor=none;strokeColor=#3162AF;fontColor=#333333;labelBackgroundColor=none;align=left;verticalAlign=bottom;labelBorderColor=none;spacingTop=0;spacing=10;dashPattern=8 4;metaEdit=1;rotatable=0;perimeter=rectanglePerimeter;noLabel=0;labelPadding=0;allowArrows=0;connectable=0;expand=0;recursiveResize=0;editable=0;pointerEvents=0;absoluteArcSize=1;points=[[0.25,0,0],[0.5,0,0],[0.75,0,0],[1,0.25,0],[1,0.5,0],[1,0.75,0],[0.75,1,0],[0.5,1,0],[0.25,1,0],[0,0.75,0],[0,0.5,0],[0,0.25,0]];strokeWidth=2;movable=0;resizable=0;deletable=0;" parent="39T0jwed-VUf1nxWEC5t-1" vertex="1">
                        <mxGeometry x="-1248" y="-972" width="1655" height="1249" as="geometry"/>
                    </mxCell>
                </object>
                <object placeholders="1" c4Type="Database" c4Container="Container" c4Technology="PostgreSQL" c4Description="Stores user credentials, access logs, information, skills, roadmaps , etc." label="&lt;font style=&quot;font-size: 16px&quot;&gt;&lt;b&gt;%c4Type%&lt;/b&gt;&lt;/font&gt;&lt;div&gt;[%c4Container%:&amp;nbsp;%c4Technology%]&lt;/div&gt;&lt;br&gt;&lt;div&gt;&lt;font style=&quot;font-size: 11px&quot;&gt;&lt;font color=&quot;#E6E6E6&quot;&gt;%c4Description%&lt;/font&gt;&lt;/div&gt;" id="39T0jwed-VUf1nxWEC5t-15">
                    <mxCell style="shape=cylinder3;size=15;whiteSpace=wrap;html=1;boundedLbl=1;rounded=0;labelBackgroundColor=none;fillColor=#23A2D9;fontSize=12;fontColor=#ffffff;align=center;strokeColor=#0E7DAD;metaEdit=1;points=[[0.5,0,0],[1,0.25,0],[1,0.5,0],[1,0.75,0],[0.5,1,0],[0,0.75,0],[0,0.5,0],[0,0.25,0]];resizable=0;strokeWidth=2;movable=0;rotatable=0;deletable=0;editable=0;connectable=0;" parent="39T0jwed-VUf1nxWEC5t-1" vertex="1">
                        <mxGeometry x="127" y="-734" width="240" height="120" as="geometry"/>
                    </mxCell>
                </object>
                <object placeholders="1" c4Type="Relationship" c4Technology="SQL/TCP" c4Description="Reads from and writes to" label="&lt;div style=&quot;text-align: left&quot;&gt;&lt;div style=&quot;text-align: center&quot;&gt;&lt;b&gt;%c4Description%&lt;/b&gt;&lt;/div&gt;&lt;div style=&quot;text-align: center&quot;&gt;[%c4Technology%]&lt;/div&gt;&lt;/div&gt;" id="39T0jwed-VUf1nxWEC5t-16">
                    <mxCell style="endArrow=blockThin;html=1;fontSize=10;fontColor=#404040;strokeWidth=2;endFill=1;strokeColor=#828282;elbow=vertical;metaEdit=1;endSize=14;startSize=14;jumpStyle=arc;jumpSize=16;rounded=0;edgeStyle=orthogonalEdgeStyle;exitX=0.75;exitY=1;exitDx=0;exitDy=0;exitPerimeter=0;entryX=0.5;entryY=1;entryDx=0;entryDy=0;entryPerimeter=0;movable=0;resizable=0;rotatable=0;deletable=0;editable=0;connectable=0;" parent="39T0jwed-VUf1nxWEC5t-1" source="a1scxqDBa0EgdVLqmRlR-8" target="39T0jwed-VUf1nxWEC5t-15" edge="1">
                        <mxGeometry width="240" relative="1" as="geometry">
                            <mxPoint x="-754" y="-686" as="sourcePoint"/>
                            <mxPoint x="-514" y="-686" as="targetPoint"/>
                            <Array as="points">
                                <mxPoint x="-310" y="233"/>
                                <mxPoint x="247" y="233"/>
                            </Array>
                        </mxGeometry>
                    </mxCell>
                </object>
                <mxCell id="39T0jwed-VUf1nxWEC5t-17" value="Legend" style="align=left;fontSize=16;fontStyle=1;strokeColor=none;fillColor=none;fontColor=#4D4D4D;spacingTop=-8;resizable=0;strokeWidth=2;movable=0;rotatable=0;deletable=0;editable=0;connectable=0;" parent="39T0jwed-VUf1nxWEC5t-1" vertex="1">
                    <mxGeometry x="500" y="-1050" width="180" height="30" as="geometry"/>
                </mxCell>
                <mxCell id="39T0jwed-VUf1nxWEC5t-18" value="" style="shape=table;html=1;whiteSpace=wrap;startSize=0;container=1;collapsible=0;childLayout=tableLayout;fillColor=none;align=left;spacingLeft=10;strokeColor=none;rounded=1;arcSize=11;fontColor=#FFFFFF;resizable=0;points=[[0.25,0,0],[0.5,0,0],[0.75,0,0],[1,0.25,0],[1,0.5,0],[1,0.75,0],[0.75,1,0],[0.5,1,0],[0.25,1,0],[0,0.75,0],[0,0.5,0],[0,0.25,0]];strokeWidth=2;movable=0;rotatable=0;deletable=0;editable=0;connectable=0;" parent="39T0jwed-VUf1nxWEC5t-1" vertex="1">
                    <mxGeometry x="500" y="-1020" width="180" height="120" as="geometry"/>
                </mxCell>
                <mxCell id="39T0jwed-VUf1nxWEC5t-19" value="Person" style="shape=partialRectangle;html=1;whiteSpace=wrap;connectable=0;fillColor=#1E4074;top=0;left=0;bottom=0;right=0;overflow=hidden;pointerEvents=1;align=left;spacingLeft=10;strokeColor=none;fontColor=#FFFFFF;strokeWidth=2;movable=0;resizable=0;rotatable=0;deletable=0;editable=0;" parent="39T0jwed-VUf1nxWEC5t-18" vertex="1">
                    <mxGeometry width="180" height="30" as="geometry"/>
                </mxCell>
                <mxCell id="39T0jwed-VUf1nxWEC5t-20" value="Container" style="shape=partialRectangle;html=1;whiteSpace=wrap;connectable=0;fillColor=#52A2D8;top=0;left=0;bottom=0;right=0;overflow=hidden;pointerEvents=1;align=left;spacingLeft=10;fontColor=#FFFFFF;strokeWidth=2;movable=0;resizable=0;rotatable=0;deletable=0;editable=0;" parent="39T0jwed-VUf1nxWEC5t-18" vertex="1">
                    <mxGeometry y="30" width="180" height="30" as="geometry"/>
                </mxCell>
                <mxCell id="a1scxqDBa0EgdVLqmRlR-23" value="Component" style="shape=partialRectangle;html=1;whiteSpace=wrap;connectable=0;fillColor=#7CBEF1;top=0;left=0;bottom=0;right=0;overflow=hidden;pointerEvents=1;align=left;spacingLeft=10;fontColor=#FFFFFF;movable=0;resizable=0;rotatable=0;deletable=0;editable=0;" parent="39T0jwed-VUf1nxWEC5t-18" vertex="1">
                    <mxGeometry y="60" width="180" height="30" as="geometry"/>
                </mxCell>
                <mxCell id="39T0jwed-VUf1nxWEC5t-21" value="External Software System" style="shape=partialRectangle;html=1;whiteSpace=wrap;connectable=0;fillColor=#8B8496;top=0;left=0;bottom=0;right=0;overflow=hidden;pointerEvents=1;align=left;spacingLeft=10;fontColor=#FFFFFF;strokeWidth=2;movable=0;resizable=0;rotatable=0;deletable=0;editable=0;" parent="39T0jwed-VUf1nxWEC5t-18" vertex="1">
                    <mxGeometry y="90" width="180" height="30" as="geometry"/>
                </mxCell>
                <object placeholders="1" c4Name="Backend API" c4Type="ContainerScopeBoundary" c4Application="Container" label="&lt;font style=&quot;font-size: 16px&quot;&gt;&lt;b&gt;&lt;div style=&quot;text-align: left&quot;&gt;%c4Name%&lt;/div&gt;&lt;/b&gt;&lt;/font&gt;&lt;div style=&quot;text-align: left&quot;&gt;[%c4Application%]&lt;/div&gt;" id="piIofMSXSRvh-CGvLQNc-0">
                    <mxCell style="rounded=1;fontSize=11;whiteSpace=wrap;html=1;dashed=1;arcSize=20;fillColor=none;strokeColor=#52A2D8;fontColor=#333333;labelBackgroundColor=none;align=left;verticalAlign=bottom;labelBorderColor=none;spacingTop=0;spacing=10;dashPattern=8 4;metaEdit=1;rotatable=0;perimeter=rectanglePerimeter;noLabel=0;labelPadding=0;allowArrows=0;connectable=0;expand=0;recursiveResize=0;editable=0;pointerEvents=0;absoluteArcSize=1;points=[[0.25,0,0],[0.5,0,0],[0.75,0,0],[1,0.25,0],[1,0.5,0],[1,0.75,0],[0.75,1,0],[0.5,1,0],[0.25,1,0],[0,0.75,0],[0,0.5,0],[0,0.25,0]];strokeWidth=2;movable=0;resizable=0;deletable=0;" parent="39T0jwed-VUf1nxWEC5t-1" vertex="1">
                        <mxGeometry x="-649" y="-786" width="740" height="962" as="geometry"/>
                    </mxCell>
                </object>
                <object placeholders="1" c4Name="Backend API" c4Type="ContainerScopeBoundary" c4Application="Container" label="&lt;font style=&quot;font-size: 16px&quot;&gt;&lt;b&gt;&lt;div style=&quot;text-align: left&quot;&gt;%c4Name%&lt;/div&gt;&lt;/b&gt;&lt;/font&gt;&lt;div style=&quot;text-align: left&quot;&gt;[%c4Application%]&lt;/div&gt;" id="a1scxqDBa0EgdVLqmRlR-0">
                    <mxCell style="rounded=1;fontSize=11;whiteSpace=wrap;html=1;dashed=1;arcSize=20;fillColor=none;strokeColor=#52A2D8;fontColor=#333333;labelBackgroundColor=none;align=left;verticalAlign=bottom;labelBorderColor=none;spacingTop=0;spacing=10;dashPattern=8 4;metaEdit=1;rotatable=0;perimeter=rectanglePerimeter;noLabel=0;labelPadding=0;allowArrows=0;connectable=0;expand=0;recursiveResize=0;editable=0;pointerEvents=0;absoluteArcSize=1;points=[[0.25,0,0],[0.5,0,0],[0.75,0,0],[1,0.25,0],[1,0.5,0],[1,0.75,0],[0.75,1,0],[0.5,1,0],[0.25,1,0],[0,0.75,0],[0,0.5,0],[0,0.25,0]];strokeWidth=2;movable=0;resizable=0;deletable=0;" parent="39T0jwed-VUf1nxWEC5t-1" vertex="1">
                        <mxGeometry x="-1190" y="-779" width="320" height="959" as="geometry"/>
                    </mxCell>
                </object>
                <object placeholders="1" c4Name="Page" c4Type="Component" c4Technology="React" c4Description="Contains Page Components. Each Page Component is associated with a route and is composed by importing Components and Feature Components. " label="&lt;font style=&quot;font-size: 16px&quot;&gt;&lt;b&gt;%c4Name%&lt;/b&gt;&lt;/font&gt;&lt;div&gt;[%c4Type%: %c4Technology%]&lt;/div&gt;&lt;br&gt;&lt;div&gt;&lt;font style=&quot;font-size: 11px&quot;&gt;%c4Description%&lt;/font&gt;&lt;/div&gt;" id="a1scxqDBa0EgdVLqmRlR-1">
                    <mxCell style="rounded=1;whiteSpace=wrap;html=1;labelBackgroundColor=none;fillColor=#63BEF2;fontColor=#ffffff;align=center;arcSize=6;strokeColor=#2086C9;metaEdit=1;resizable=0;points=[[0.25,0,0],[0.5,0,0],[0.75,0,0],[1,0.25,0],[1,0.5,0],[1,0.75,0],[0.75,1,0],[0.5,1,0],[0.25,1,0],[0,0.75,0],[0,0.5,0],[0,0.25,0]];movable=0;rotatable=0;deletable=0;editable=0;connectable=0;" parent="39T0jwed-VUf1nxWEC5t-1" vertex="1">
                        <mxGeometry x="-1150.5" y="-734" width="240" height="120" as="geometry"/>
                    </mxCell>
                </object>
                <object placeholders="1" c4Name="Feature" c4Type="Component" c4Technology="React" c4Description="Contains Page Components. Each Page Component is associated with a route and is composed by importing Components and Feature Components. " label="&lt;font style=&quot;font-size: 16px&quot;&gt;&lt;b&gt;%c4Name%&lt;/b&gt;&lt;/font&gt;&lt;div&gt;[%c4Type%: %c4Technology%]&lt;/div&gt;&lt;br&gt;&lt;div&gt;&lt;font style=&quot;font-size: 11px&quot;&gt;%c4Description%&lt;/font&gt;&lt;/div&gt;" id="a1scxqDBa0EgdVLqmRlR-2">
                    <mxCell style="rounded=1;whiteSpace=wrap;html=1;labelBackgroundColor=none;fillColor=#63BEF2;fontColor=#ffffff;align=center;arcSize=6;strokeColor=#2086C9;metaEdit=1;resizable=0;points=[[0.25,0,0],[0.5,0,0],[0.75,0,0],[1,0.25,0],[1,0.5,0],[1,0.75,0],[0.75,1,0],[0.5,1,0],[0.25,1,0],[0,0.75,0],[0,0.5,0],[0,0.25,0]];movable=0;rotatable=0;deletable=0;editable=0;connectable=0;" parent="39T0jwed-VUf1nxWEC5t-1" vertex="1">
                        <mxGeometry x="-1150" y="-500" width="240" height="120" as="geometry"/>
                    </mxCell>
                </object>
                <object placeholders="1" c4Name="Component" c4Type="Component" c4Technology="React" c4Description="Contains Page Components. Each Page Component is associated with a route and is composed by importing Components and Feature Components. " label="&lt;font style=&quot;font-size: 16px&quot;&gt;&lt;b&gt;%c4Name%&lt;/b&gt;&lt;/font&gt;&lt;div&gt;[%c4Type%: %c4Technology%]&lt;/div&gt;&lt;br&gt;&lt;div&gt;&lt;font style=&quot;font-size: 11px&quot;&gt;%c4Description%&lt;/font&gt;&lt;/div&gt;" id="a1scxqDBa0EgdVLqmRlR-3">
                    <mxCell style="rounded=1;whiteSpace=wrap;html=1;labelBackgroundColor=none;fillColor=#63BEF2;fontColor=#ffffff;align=center;arcSize=6;strokeColor=#2086C9;metaEdit=1;resizable=0;points=[[0.25,0,0],[0.5,0,0],[0.75,0,0],[1,0.25,0],[1,0.5,0],[1,0.75,0],[0.75,1,0],[0.5,1,0],[0.25,1,0],[0,0.75,0],[0,0.5,0],[0,0.25,0]];movable=0;rotatable=0;deletable=0;editable=0;connectable=0;" parent="39T0jwed-VUf1nxWEC5t-1" vertex="1">
                        <mxGeometry x="-1150" y="-265" width="240" height="120" as="geometry"/>
                    </mxCell>
                </object>
                <object placeholders="1" c4Name="Service" c4Type="Component" c4Technology="React" c4Description="Contains Page Components. Each Page Component is associated with a route and is composed by importing Components and Feature Components. " label="&lt;font style=&quot;font-size: 16px&quot;&gt;&lt;b&gt;%c4Name%&lt;/b&gt;&lt;/font&gt;&lt;div&gt;[%c4Type%: %c4Technology%]&lt;/div&gt;&lt;br&gt;&lt;div&gt;&lt;font style=&quot;font-size: 11px&quot;&gt;%c4Description%&lt;/font&gt;&lt;/div&gt;" id="a1scxqDBa0EgdVLqmRlR-4">
                    <mxCell style="rounded=1;whiteSpace=wrap;html=1;labelBackgroundColor=none;fillColor=#63BEF2;fontColor=#ffffff;align=center;arcSize=6;strokeColor=#2086C9;metaEdit=1;resizable=0;points=[[0.25,0,0],[0.5,0,0],[0.75,0,0],[1,0.25,0],[1,0.5,0],[1,0.75,0],[0.75,1,0],[0.5,1,0],[0.25,1,0],[0,0.75,0],[0,0.5,0],[0,0.25,0]];movable=0;rotatable=0;deletable=0;editable=0;connectable=0;" parent="39T0jwed-VUf1nxWEC5t-1" vertex="1">
                        <mxGeometry x="-1150.5" y="-31" width="240" height="120" as="geometry"/>
                    </mxCell>
                </object>
                <object placeholders="1" c4Name="User Controller" c4Type="Component" c4Technology="Kotlin" c4Description="Contains User endpoints. Each Controller is associated with a route and calls the services to execute the operations." label="&lt;font style=&quot;font-size: 16px&quot;&gt;&lt;b&gt;%c4Name%&lt;/b&gt;&lt;/font&gt;&lt;div&gt;[%c4Type%: %c4Technology%]&lt;/div&gt;&lt;br&gt;&lt;div&gt;&lt;font style=&quot;font-size: 11px&quot;&gt;%c4Description%&lt;/font&gt;&lt;/div&gt;" id="a1scxqDBa0EgdVLqmRlR-6">
                    <mxCell style="rounded=1;whiteSpace=wrap;html=1;labelBackgroundColor=none;fillColor=#63BEF2;fontColor=#ffffff;align=center;arcSize=6;strokeColor=#2086C9;metaEdit=1;resizable=0;points=[[0.25,0,0],[0.5,0,0],[0.75,0,0],[1,0.25,0],[1,0.5,0],[1,0.75,0],[0.75,1,0],[0.5,1,0],[0.25,1,0],[0,0.75,0],[0,0.5,0],[0,0.25,0]];movable=0;rotatable=0;deletable=0;editable=0;connectable=0;" parent="39T0jwed-VUf1nxWEC5t-1" vertex="1">
                        <mxGeometry x="-610" y="-734" width="240" height="120" as="geometry"/>
                    </mxCell>
                </object>
                <object placeholders="1" c4Name="User Service" c4Type="Component" c4Technology="Kotlin" c4Description="Contains the logic for execute the User operations." label="&lt;font style=&quot;font-size: 16px&quot;&gt;&lt;b&gt;%c4Name%&lt;/b&gt;&lt;/font&gt;&lt;div&gt;[%c4Type%: %c4Technology%]&lt;/div&gt;&lt;br&gt;&lt;div&gt;&lt;font style=&quot;font-size: 11px&quot;&gt;%c4Description%&lt;/font&gt;&lt;/div&gt;" id="a1scxqDBa0EgdVLqmRlR-7">
                    <mxCell style="rounded=1;whiteSpace=wrap;html=1;labelBackgroundColor=none;fillColor=#63BEF2;fontColor=#ffffff;align=center;arcSize=6;strokeColor=#2086C9;metaEdit=1;resizable=0;points=[[0.25,0,0],[0.5,0,0],[0.75,0,0],[1,0.25,0],[1,0.5,0],[1,0.75,0],[0.75,1,0],[0.5,1,0],[0.25,1,0],[0,0.75,0],[0,0.5,0],[0,0.25,0]];movable=0;rotatable=0;deletable=0;editable=0;connectable=0;" parent="39T0jwed-VUf1nxWEC5t-1" vertex="1">
                        <mxGeometry x="-610" y="-502" width="240" height="120" as="geometry"/>
                    </mxCell>
                </object>
                <object placeholders="1" c4Name="User Repository" c4Type="Component" c4Technology="Kotlin" c4Description="Contains the operations to handle the User models. " label="&lt;font style=&quot;font-size: 16px&quot;&gt;&lt;b&gt;%c4Name%&lt;/b&gt;&lt;/font&gt;&lt;div&gt;[%c4Type%: %c4Technology%]&lt;/div&gt;&lt;br&gt;&lt;div&gt;&lt;font style=&quot;font-size: 11px&quot;&gt;%c4Description%&lt;/font&gt;&lt;/div&gt;" id="a1scxqDBa0EgdVLqmRlR-8">
                    <mxCell style="rounded=1;whiteSpace=wrap;html=1;labelBackgroundColor=none;fillColor=#63BEF2;fontColor=#ffffff;align=center;arcSize=6;strokeColor=#2086C9;metaEdit=1;resizable=0;points=[[0.25,0,0],[0.5,0,0],[0.75,0,0],[1,0.25,0],[1,0.5,0],[1,0.75,0],[0.75,1,0],[0.5,1,0],[0.25,1,0],[0,0.75,0],[0,0.5,0],[0,0.25,0]];movable=0;rotatable=0;deletable=0;editable=0;connectable=0;" parent="39T0jwed-VUf1nxWEC5t-1" vertex="1">
                        <mxGeometry x="-490" y="-271" width="240" height="120" as="geometry"/>
                    </mxCell>
                </object>
                <object placeholders="1" c4Name="User Authentication Client" c4Type="Component" c4Technology="Kotlin" c4Description="Contains the logic for execute the application integration for User authentication." label="&lt;font style=&quot;font-size: 16px&quot;&gt;&lt;b&gt;%c4Name%&lt;/b&gt;&lt;/font&gt;&lt;div&gt;[%c4Type%: %c4Technology%]&lt;/div&gt;&lt;br&gt;&lt;div&gt;&lt;font style=&quot;font-size: 11px&quot;&gt;%c4Description%&lt;/font&gt;&lt;/div&gt;" id="a1scxqDBa0EgdVLqmRlR-9">
                    <mxCell style="rounded=1;whiteSpace=wrap;html=1;labelBackgroundColor=none;fillColor=#63BEF2;fontColor=#ffffff;align=center;arcSize=6;strokeColor=#2086C9;metaEdit=1;resizable=0;points=[[0.25,0,0],[0.5,0,0],[0.75,0,0],[1,0.25,0],[1,0.5,0],[1,0.75,0],[0.75,1,0],[0.5,1,0],[0.25,1,0],[0,0.75,0],[0,0.5,0],[0,0.25,0]];movable=0;rotatable=0;deletable=0;editable=0;connectable=0;" parent="39T0jwed-VUf1nxWEC5t-1" vertex="1">
                        <mxGeometry x="-610" y="-38" width="240" height="120" as="geometry"/>
                    </mxCell>
                </object>
                <object placeholders="1" c4Type="Relationship" c4Description="Composed by" label="&lt;div style=&quot;text-align: left&quot;&gt;&lt;div style=&quot;text-align: center&quot;&gt;&lt;b&gt;%c4Description%&lt;/b&gt;&lt;/div&gt;" id="a1scxqDBa0EgdVLqmRlR-12">
                    <mxCell style="endArrow=blockThin;html=1;fontSize=10;fontColor=#404040;strokeWidth=2;endFill=1;strokeColor=#828282;elbow=vertical;metaEdit=1;endSize=14;startSize=14;jumpStyle=arc;jumpSize=16;rounded=0;edgeStyle=orthogonalEdgeStyle;exitX=0.5;exitY=1;exitDx=0;exitDy=0;exitPerimeter=0;entryX=0.5;entryY=0;entryDx=0;entryDy=0;entryPerimeter=0;movable=0;resizable=0;rotatable=0;deletable=0;editable=0;connectable=0;" parent="39T0jwed-VUf1nxWEC5t-1" source="a1scxqDBa0EgdVLqmRlR-1" target="a1scxqDBa0EgdVLqmRlR-2" edge="1">
                        <mxGeometry width="240" relative="1" as="geometry">
                            <mxPoint x="-1661" y="-462.9999999999998" as="sourcePoint"/>
                            <mxPoint x="-1140.5" y="-634" as="targetPoint"/>
                            <Array as="points">
                                <mxPoint x="-1030" y="-544"/>
                                <mxPoint x="-1030" y="-544"/>
                            </Array>
                        </mxGeometry>
                    </mxCell>
                </object>
                <object placeholders="1" c4Type="Relationship" c4Description="Composed by" label="&lt;div style=&quot;text-align: left&quot;&gt;&lt;div style=&quot;text-align: center&quot;&gt;&lt;b&gt;%c4Description%&lt;/b&gt;&lt;/div&gt;" id="a1scxqDBa0EgdVLqmRlR-13">
                    <mxCell style="endArrow=blockThin;html=1;fontSize=10;fontColor=#404040;strokeWidth=2;endFill=1;strokeColor=#828282;elbow=vertical;metaEdit=1;endSize=14;startSize=14;jumpStyle=arc;jumpSize=16;rounded=0;edgeStyle=orthogonalEdgeStyle;exitX=0.5;exitY=1;exitDx=0;exitDy=0;exitPerimeter=0;entryX=0.5;entryY=0;entryDx=0;entryDy=0;entryPerimeter=0;movable=0;resizable=0;rotatable=0;deletable=0;editable=0;connectable=0;" parent="39T0jwed-VUf1nxWEC5t-1" source="a1scxqDBa0EgdVLqmRlR-2" target="a1scxqDBa0EgdVLqmRlR-3" edge="1">
                        <mxGeometry x="-0.0083" width="240" relative="1" as="geometry">
                            <mxPoint x="-1020.5" y="-604" as="sourcePoint"/>
                            <mxPoint x="-1020" y="-490" as="targetPoint"/>
                            <Array as="points">
                                <mxPoint x="-1029" y="-380"/>
                                <mxPoint x="-1029" y="-265"/>
                            </Array>
                            <mxPoint as="offset"/>
                        </mxGeometry>
                    </mxCell>
                </object>
                <object placeholders="1" c4Type="Relationship" c4Description="Uses" label="&lt;div style=&quot;text-align: left&quot;&gt;&lt;div style=&quot;text-align: center&quot;&gt;&lt;b&gt;%c4Description%&lt;/b&gt;&lt;/div&gt;" id="a1scxqDBa0EgdVLqmRlR-14">
                    <mxCell style="endArrow=blockThin;html=1;fontSize=10;fontColor=#404040;strokeWidth=2;endFill=1;strokeColor=#828282;elbow=vertical;metaEdit=1;endSize=14;startSize=14;jumpStyle=arc;jumpSize=16;rounded=0;edgeStyle=orthogonalEdgeStyle;exitX=0.5;exitY=1;exitDx=0;exitDy=0;exitPerimeter=0;entryX=0.5;entryY=0;entryDx=0;entryDy=0;entryPerimeter=0;movable=0;resizable=0;rotatable=0;deletable=0;editable=0;connectable=0;" parent="39T0jwed-VUf1nxWEC5t-1" source="a1scxqDBa0EgdVLqmRlR-3" target="a1scxqDBa0EgdVLqmRlR-4" edge="1">
                        <mxGeometry x="-0.0083" width="240" relative="1" as="geometry">
                            <mxPoint x="-1020" y="-370" as="sourcePoint"/>
                            <mxPoint x="-1020" y="-255" as="targetPoint"/>
                            <Array as="points">
                                <mxPoint x="-1030" y="-91"/>
                                <mxPoint x="-1030" y="-91"/>
                            </Array>
                            <mxPoint as="offset"/>
                        </mxGeometry>
                    </mxCell>
                </object>
                <object placeholders="1" c4Type="Relationship" c4Description="Uses" label="&lt;div style=&quot;text-align: left&quot;&gt;&lt;div style=&quot;text-align: center&quot;&gt;&lt;b&gt;%c4Description%&lt;/b&gt;&lt;/div&gt;" id="a1scxqDBa0EgdVLqmRlR-15">
                    <mxCell style="endArrow=blockThin;html=1;fontSize=10;fontColor=#404040;strokeWidth=2;endFill=1;strokeColor=#828282;elbow=vertical;metaEdit=1;endSize=14;startSize=14;jumpStyle=arc;jumpSize=16;rounded=0;edgeStyle=orthogonalEdgeStyle;exitX=0.5;exitY=1;exitDx=0;exitDy=0;exitPerimeter=0;entryX=0.5;entryY=0;entryDx=0;entryDy=0;entryPerimeter=0;movable=0;resizable=0;rotatable=0;deletable=0;editable=0;connectable=0;" parent="39T0jwed-VUf1nxWEC5t-1" source="a1scxqDBa0EgdVLqmRlR-6" target="a1scxqDBa0EgdVLqmRlR-7" edge="1">
                        <mxGeometry x="-0.0083" width="240" relative="1" as="geometry">
                            <mxPoint x="-548.5" y="-592" as="sourcePoint"/>
                            <mxPoint x="-549" y="-478" as="targetPoint"/>
                            <Array as="points">
                                <mxPoint x="-490" y="-614"/>
                            </Array>
                            <mxPoint as="offset"/>
                        </mxGeometry>
                    </mxCell>
                </object>
                <object placeholders="1" c4Type="Relationship" c4Description="Uses" label="&lt;div style=&quot;text-align: left&quot;&gt;&lt;div style=&quot;text-align: center&quot;&gt;&lt;b&gt;%c4Description%&lt;/b&gt;&lt;/div&gt;" id="a1scxqDBa0EgdVLqmRlR-16">
                    <mxCell style="endArrow=blockThin;html=1;fontSize=10;fontColor=#404040;strokeWidth=2;endFill=1;strokeColor=#828282;elbow=vertical;metaEdit=1;endSize=14;startSize=14;jumpStyle=arc;jumpSize=16;rounded=0;edgeStyle=orthogonalEdgeStyle;exitX=0.25;exitY=1;exitDx=0;exitDy=0;exitPerimeter=0;entryX=0.25;entryY=0;entryDx=0;entryDy=0;entryPerimeter=0;movable=0;resizable=0;rotatable=0;deletable=0;editable=0;connectable=0;" parent="39T0jwed-VUf1nxWEC5t-1" source="a1scxqDBa0EgdVLqmRlR-7" target="a1scxqDBa0EgdVLqmRlR-9" edge="1">
                        <mxGeometry x="-0.0083" width="240" relative="1" as="geometry">
                            <mxPoint x="-571.0000000000005" y="-317" as="sourcePoint"/>
                            <mxPoint x="-568.9999999999995" y="-205.00000000000023" as="targetPoint"/>
                            <Array as="points">
                                <mxPoint x="-550" y="-209"/>
                                <mxPoint x="-550" y="-209"/>
                            </Array>
                            <mxPoint as="offset"/>
                        </mxGeometry>
                    </mxCell>
                </object>
                <object placeholders="1" c4Type="Relationship" c4Description="Uses" label="&lt;div style=&quot;text-align: left&quot;&gt;&lt;div style=&quot;text-align: center&quot;&gt;&lt;b&gt;%c4Description%&lt;/b&gt;&lt;/div&gt;" id="a1scxqDBa0EgdVLqmRlR-17">
                    <mxCell style="endArrow=blockThin;html=1;fontSize=10;fontColor=#404040;strokeWidth=2;endFill=1;strokeColor=#828282;elbow=vertical;metaEdit=1;endSize=14;startSize=14;jumpStyle=arc;jumpSize=16;rounded=0;edgeStyle=orthogonalEdgeStyle;exitX=0.75;exitY=1;exitDx=0;exitDy=0;exitPerimeter=0;entryX=0.25;entryY=0;entryDx=0;entryDy=0;entryPerimeter=0;movable=0;resizable=0;rotatable=0;deletable=0;editable=0;connectable=0;" parent="39T0jwed-VUf1nxWEC5t-1" source="a1scxqDBa0EgdVLqmRlR-7" target="a1scxqDBa0EgdVLqmRlR-8" edge="1">
                        <mxGeometry x="-0.0083" width="240" relative="1" as="geometry">
                            <mxPoint x="-539.9999999999995" y="-372.0000000000002" as="sourcePoint"/>
                            <mxPoint x="-539.9999999999995" y="-29" as="targetPoint"/>
                            <Array as="points">
                                <mxPoint x="-430" y="-333"/>
                                <mxPoint x="-430" y="-333"/>
                            </Array>
                            <mxPoint as="offset"/>
                        </mxGeometry>
                    </mxCell>
                </object>
                <object placeholders="1" c4Name="Roadmap Controller" c4Type="Component" c4Technology="Kotlin" c4Description="Contains Roadmap endpoints. Each Controller is associated with a route and calls the services to execute the operations." label="&lt;font style=&quot;font-size: 16px&quot;&gt;&lt;b&gt;%c4Name%&lt;/b&gt;&lt;/font&gt;&lt;div&gt;[%c4Type%: %c4Technology%]&lt;/div&gt;&lt;br&gt;&lt;div&gt;&lt;font style=&quot;font-size: 11px&quot;&gt;%c4Description%&lt;/font&gt;&lt;/div&gt;" id="NK9fN4aMyx6G2WWls0hk-0">
                    <mxCell style="rounded=1;whiteSpace=wrap;html=1;labelBackgroundColor=none;fillColor=#63BEF2;fontColor=#ffffff;align=center;arcSize=6;strokeColor=#2086C9;metaEdit=1;resizable=0;points=[[0.25,0,0],[0.5,0,0],[0.75,0,0],[1,0.25,0],[1,0.5,0],[1,0.75,0],[0.75,1,0],[0.5,1,0],[0.25,1,0],[0,0.75,0],[0,0.5,0],[0,0.25,0]];movable=0;rotatable=0;deletable=0;editable=0;connectable=0;" parent="39T0jwed-VUf1nxWEC5t-1" vertex="1">
                        <mxGeometry x="-196" y="-734" width="240" height="120" as="geometry"/>
                    </mxCell>
                </object>
                <object placeholders="1" c4Name="Roadmap Service" c4Type="Component" c4Technology="Kotlin" c4Description="Contains the logic for execute the Roadmap operations." label="&lt;font style=&quot;font-size: 16px&quot;&gt;&lt;b&gt;%c4Name%&lt;/b&gt;&lt;/font&gt;&lt;div&gt;[%c4Type%: %c4Technology%]&lt;/div&gt;&lt;br&gt;&lt;div&gt;&lt;font style=&quot;font-size: 11px&quot;&gt;%c4Description%&lt;/font&gt;&lt;/div&gt;" id="NK9fN4aMyx6G2WWls0hk-1">
                    <mxCell style="rounded=1;whiteSpace=wrap;html=1;labelBackgroundColor=none;fillColor=#63BEF2;fontColor=#ffffff;align=center;arcSize=6;strokeColor=#2086C9;metaEdit=1;resizable=0;points=[[0.25,0,0],[0.5,0,0],[0.75,0,0],[1,0.25,0],[1,0.5,0],[1,0.75,0],[0.75,1,0],[0.5,1,0],[0.25,1,0],[0,0.75,0],[0,0.5,0],[0,0.25,0]];movable=0;rotatable=0;deletable=0;editable=0;connectable=0;" parent="39T0jwed-VUf1nxWEC5t-1" vertex="1">
                        <mxGeometry x="-196" y="-502" width="240" height="120" as="geometry"/>
                    </mxCell>
                </object>
                <object placeholders="1" c4Name="Roadmap Repository" c4Type="Component" c4Technology="Kotlin" c4Description="Contains the operations to handle the Roadmap models. " label="&lt;font style=&quot;font-size: 16px&quot;&gt;&lt;b&gt;%c4Name%&lt;/b&gt;&lt;/font&gt;&lt;div&gt;[%c4Type%: %c4Technology%]&lt;/div&gt;&lt;br&gt;&lt;div&gt;&lt;font style=&quot;font-size: 11px&quot;&gt;%c4Description%&lt;/font&gt;&lt;/div&gt;" id="NK9fN4aMyx6G2WWls0hk-2">
                    <mxCell style="rounded=1;whiteSpace=wrap;html=1;labelBackgroundColor=none;fillColor=#63BEF2;fontColor=#ffffff;align=center;arcSize=6;strokeColor=#2086C9;metaEdit=1;resizable=0;points=[[0.25,0,0],[0.5,0,0],[0.75,0,0],[1,0.25,0],[1,0.5,0],[1,0.75,0],[0.75,1,0],[0.5,1,0],[0.25,1,0],[0,0.75,0],[0,0.5,0],[0,0.25,0]];movable=0;rotatable=0;deletable=0;editable=0;connectable=0;" parent="39T0jwed-VUf1nxWEC5t-1" vertex="1">
                        <mxGeometry x="-196" y="-271" width="240" height="120" as="geometry"/>
                    </mxCell>
                </object>
                <object placeholders="1" c4Type="Relationship" c4Description="Uses" label="&lt;div style=&quot;text-align: left&quot;&gt;&lt;div style=&quot;text-align: center&quot;&gt;&lt;b&gt;%c4Description%&lt;/b&gt;&lt;/div&gt;" id="NK9fN4aMyx6G2WWls0hk-4">
                    <mxCell style="endArrow=blockThin;html=1;fontSize=10;fontColor=#404040;strokeWidth=2;endFill=1;strokeColor=#828282;elbow=vertical;metaEdit=1;endSize=14;startSize=14;jumpStyle=arc;jumpSize=16;rounded=0;edgeStyle=orthogonalEdgeStyle;exitX=0.5;exitY=1;exitDx=0;exitDy=0;exitPerimeter=0;entryX=0.5;entryY=0;entryDx=0;entryDy=0;entryPerimeter=0;movable=0;resizable=0;rotatable=0;deletable=0;editable=0;connectable=0;" parent="39T0jwed-VUf1nxWEC5t-1" source="NK9fN4aMyx6G2WWls0hk-0" target="NK9fN4aMyx6G2WWls0hk-1" edge="1">
                        <mxGeometry x="-0.0083" width="240" relative="1" as="geometry">
                            <mxPoint x="-134.5" y="-592" as="sourcePoint"/>
                            <mxPoint x="-135" y="-478" as="targetPoint"/>
                            <Array as="points">
                                <mxPoint x="-76" y="-614"/>
                            </Array>
                            <mxPoint as="offset"/>
                        </mxGeometry>
                    </mxCell>
                </object>
                <object placeholders="1" c4Type="Relationship" c4Description="Uses" label="&lt;div style=&quot;text-align: left&quot;&gt;&lt;div style=&quot;text-align: center&quot;&gt;&lt;b&gt;%c4Description%&lt;/b&gt;&lt;/div&gt;" id="NK9fN4aMyx6G2WWls0hk-6">
                    <mxCell style="endArrow=blockThin;html=1;fontSize=10;fontColor=#404040;strokeWidth=2;endFill=1;strokeColor=#828282;elbow=vertical;metaEdit=1;endSize=14;startSize=14;jumpStyle=arc;jumpSize=16;rounded=0;edgeStyle=orthogonalEdgeStyle;exitX=0.5;exitY=1;exitDx=0;exitDy=0;exitPerimeter=0;entryX=0.5;entryY=0;entryDx=0;entryDy=0;entryPerimeter=0;movable=0;resizable=0;rotatable=0;deletable=0;editable=0;connectable=0;" parent="39T0jwed-VUf1nxWEC5t-1" source="NK9fN4aMyx6G2WWls0hk-1" target="NK9fN4aMyx6G2WWls0hk-2" edge="1">
                        <mxGeometry x="0.0332" width="240" relative="1" as="geometry">
                            <mxPoint x="-235.99999999999955" y="-372.0000000000002" as="sourcePoint"/>
                            <mxPoint x="-235.99999999999955" y="-29" as="targetPoint"/>
                            <Array as="points">
                                <mxPoint x="-76" y="-329"/>
                                <mxPoint x="-76" y="-329"/>
                            </Array>
                            <mxPoint as="offset"/>
                        </mxGeometry>
                    </mxCell>
                </object>
                <object placeholders="1" c4Type="Relationship" c4Technology="SQL/TCP" c4Description="Reads from and writes to" label="&lt;div style=&quot;text-align: left&quot;&gt;&lt;div style=&quot;text-align: center&quot;&gt;&lt;b&gt;%c4Description%&lt;/b&gt;&lt;/div&gt;&lt;div style=&quot;text-align: center&quot;&gt;[%c4Technology%]&lt;/div&gt;&lt;/div&gt;" id="NK9fN4aMyx6G2WWls0hk-7">
                    <mxCell style="endArrow=blockThin;html=1;fontSize=10;fontColor=#404040;strokeWidth=2;endFill=1;strokeColor=#828282;elbow=vertical;metaEdit=1;endSize=14;startSize=14;jumpStyle=arc;jumpSize=16;rounded=0;edgeStyle=orthogonalEdgeStyle;exitX=1;exitY=0.5;exitDx=0;exitDy=0;exitPerimeter=0;entryX=0.5;entryY=1;entryDx=0;entryDy=0;entryPerimeter=0;movable=0;resizable=0;rotatable=0;deletable=0;editable=0;connectable=0;" parent="39T0jwed-VUf1nxWEC5t-1" source="NK9fN4aMyx6G2WWls0hk-2" target="39T0jwed-VUf1nxWEC5t-15" edge="1">
                        <mxGeometry width="240" relative="1" as="geometry">
                            <mxPoint x="-300" y="-141" as="sourcePoint"/>
                            <mxPoint x="230" y="-507" as="targetPoint"/>
                            <Array as="points">
                                <mxPoint x="247" y="-211"/>
                            </Array>
                        </mxGeometry>
                    </mxCell>
                </object>
                <object placeholders="1" c4Type="Relationship" c4Technology="JSON/HTTP" c4Description="Makes API calls" label="&lt;div style=&quot;text-align: left&quot;&gt;&lt;div style=&quot;text-align: center&quot;&gt;&lt;b&gt;%c4Description%&lt;/b&gt;&lt;/div&gt;&lt;div style=&quot;text-align: center&quot;&gt;[%c4Technology%]&lt;/div&gt;&lt;/div&gt;" id="NK9fN4aMyx6G2WWls0hk-8">
                    <mxCell style="endArrow=blockThin;html=1;fontSize=10;fontColor=#404040;strokeWidth=2;endFill=1;strokeColor=#828282;elbow=vertical;metaEdit=1;endSize=14;startSize=14;jumpStyle=arc;jumpSize=16;rounded=0;edgeStyle=orthogonalEdgeStyle;exitX=1;exitY=0.25;exitDx=0;exitDy=0;exitPerimeter=0;entryX=0.5;entryY=0;entryDx=0;entryDy=0;entryPerimeter=0;movable=0;resizable=0;rotatable=0;deletable=0;editable=0;connectable=0;" parent="39T0jwed-VUf1nxWEC5t-1" source="a1scxqDBa0EgdVLqmRlR-4" target="NK9fN4aMyx6G2WWls0hk-0" edge="1">
                        <mxGeometry width="240" relative="1" as="geometry">
                            <mxPoint x="-900.5" y="69" as="sourcePoint"/>
                            <mxPoint x="-700" y="-664.0000000000002" as="targetPoint"/>
                            <Array as="points">
                                <mxPoint x="-796" y="-1"/>
                                <mxPoint x="-796" y="-873"/>
                                <mxPoint x="-76" y="-873"/>
                            </Array>
                        </mxGeometry>
                    </mxCell>
                </object>
            </root>
        </mxGraphModel>
    </diagram>
    <diagram name="C2 model (Extendend)" id="Rc9xetv_x3uNup-HLOPU">
        <mxGraphModel dx="3614" dy="1483" grid="0" gridSize="10" guides="1" tooltips="1" connect="1" arrows="1" fold="1" page="0" pageScale="1" pageWidth="827" pageHeight="1169" math="0" shadow="0">
            <root>
                <mxCell id="LymcMFLWiHbA0FvBbtKu-0"/>
                <mxCell id="LymcMFLWiHbA0FvBbtKu-1" parent="LymcMFLWiHbA0FvBbtKu-0"/>
                <object placeholders="1" c4Name="User" c4Type="Person" c4Description="The user is the logged user who will use the application to track their own skills through the roadmaps." label="&lt;font style=&quot;font-size: 16px&quot;&gt;&lt;b&gt;%c4Name%&lt;/b&gt;&lt;/font&gt;&lt;div&gt;[%c4Type%]&lt;/div&gt;&lt;br&gt;&lt;div&gt;&lt;font style=&quot;font-size: 11px&quot;&gt;&lt;font color=&quot;#cccccc&quot;&gt;%c4Description%&lt;/font&gt;&lt;/div&gt;" id="LymcMFLWiHbA0FvBbtKu-17">
                    <mxCell style="html=1;fontSize=11;dashed=0;whiteSpace=wrap;fillColor=#083F75;strokeColor=#06315C;fontColor=#ffffff;shape=mxgraph.c4.person2;align=center;metaEdit=1;points=[[0.5,0,0],[1,0.5,0],[1,0.75,0],[0.75,1,0],[0.5,1,0],[0.25,1,0],[0,0.75,0],[0,0.5,0]];resizable=0;strokeWidth=2;movable=0;rotatable=0;deletable=0;editable=0;connectable=0;" parent="LymcMFLWiHbA0FvBbtKu-1" vertex="1">
                        <mxGeometry x="-1721" y="179" width="200" height="180" as="geometry"/>
                    </mxCell>
                </object>
                <object placeholders="1" c4Name="Anonymous User" c4Type="Person" c4Description="The anonymous user is anyone who is not logged on the application." label="&lt;font style=&quot;font-size: 16px&quot;&gt;&lt;b&gt;%c4Name%&lt;/b&gt;&lt;/font&gt;&lt;div&gt;[%c4Type%]&lt;/div&gt;&lt;br&gt;&lt;div&gt;&lt;font style=&quot;font-size: 11px&quot;&gt;&lt;font color=&quot;#cccccc&quot;&gt;%c4Description%&lt;/font&gt;&lt;/div&gt;" id="LymcMFLWiHbA0FvBbtKu-18">
                    <mxCell style="html=1;fontSize=11;dashed=0;whiteSpace=wrap;fillColor=#083F75;strokeColor=#06315C;fontColor=#ffffff;shape=mxgraph.c4.person2;align=center;metaEdit=1;points=[[0.5,0,0],[1,0.5,0],[1,0.75,0],[0.75,1,0],[0.5,1,0],[0.25,1,0],[0,0.75,0],[0,0.5,0]];resizable=0;strokeWidth=2;movable=0;rotatable=0;deletable=0;editable=0;connectable=0;" parent="LymcMFLWiHbA0FvBbtKu-1" vertex="1">
                        <mxGeometry x="-1721" y="380" width="200" height="180" as="geometry"/>
                    </mxCell>
                </object>
                <object placeholders="1" c4Name="Adm User" c4Type="Person" c4Description="The admin user is the logged user who will manage the app settings and content through the roadmaps." label="&lt;font style=&quot;font-size: 16px&quot;&gt;&lt;b&gt;%c4Name%&lt;/b&gt;&lt;/font&gt;&lt;div&gt;[%c4Type%]&lt;/div&gt;&lt;br&gt;&lt;div&gt;&lt;font style=&quot;font-size: 11px&quot;&gt;&lt;font color=&quot;#cccccc&quot;&gt;%c4Description%&lt;/font&gt;&lt;/div&gt;" id="LymcMFLWiHbA0FvBbtKu-19">
                    <mxCell style="html=1;fontSize=11;dashed=0;whiteSpace=wrap;fillColor=#083F75;strokeColor=#06315C;fontColor=#ffffff;shape=mxgraph.c4.person2;align=center;metaEdit=1;points=[[0.5,0,0],[1,0.5,0],[1,0.75,0],[0.75,1,0],[0.5,1,0],[0.25,1,0],[0,0.75,0],[0,0.5,0]];resizable=0;strokeWidth=2;movable=0;rotatable=0;deletable=0;editable=0;connectable=0;" parent="LymcMFLWiHbA0FvBbtKu-1" vertex="1">
                        <mxGeometry x="-1721" y="-21" width="200" height="180" as="geometry"/>
                    </mxCell>
                </object>
                <object placeholders="1" c4Type="Relationship" c4Description="Views pages;&#10;View, creates, update, and delete their own roadmaps;" label="&lt;div style=&quot;text-align: left&quot;&gt;&lt;div style=&quot;text-align: center&quot;&gt;&lt;b&gt;%c4Description%&lt;/b&gt;&lt;/div&gt;" id="LymcMFLWiHbA0FvBbtKu-20">
                    <mxCell style="endArrow=blockThin;html=1;fontSize=10;fontColor=#404040;strokeWidth=2;endFill=1;strokeColor=#828282;elbow=vertical;metaEdit=1;endSize=14;startSize=14;jumpStyle=arc;jumpSize=16;rounded=0;edgeStyle=orthogonalEdgeStyle;exitX=1;exitY=0.5;exitDx=0;exitDy=0;exitPerimeter=0;entryX=0;entryY=0.5;entryDx=0;entryDy=0;entryPerimeter=0;movable=0;resizable=0;rotatable=0;deletable=0;editable=0;connectable=0;" parent="LymcMFLWiHbA0FvBbtKu-1" source="LymcMFLWiHbA0FvBbtKu-17" target="LymcMFLWiHbA0FvBbtKu-24" edge="1">
                        <mxGeometry x="0.4038" width="240" relative="1" as="geometry">
                            <mxPoint x="-952" y="341" as="sourcePoint"/>
                            <mxPoint x="-674" y="338" as="targetPoint"/>
                            <Array as="points">
                                <mxPoint x="-1432" y="269"/>
                                <mxPoint x="-1432" y="139"/>
                            </Array>
                            <mxPoint as="offset"/>
                        </mxGeometry>
                    </mxCell>
                </object>
                <object placeholders="1" c4Type="Relationship" c4Description="Views pages and admin pages;&#10;View, creates, update, and delete any roadmaps;" label="&lt;div style=&quot;text-align: left&quot;&gt;&lt;div style=&quot;text-align: center&quot;&gt;&lt;b&gt;%c4Description%&lt;/b&gt;&lt;/div&gt;" id="LymcMFLWiHbA0FvBbtKu-21">
                    <mxCell style="endArrow=blockThin;html=1;fontSize=10;fontColor=#404040;strokeWidth=2;endFill=1;strokeColor=#828282;elbow=vertical;metaEdit=1;endSize=14;startSize=14;jumpStyle=arc;jumpSize=16;rounded=0;edgeStyle=orthogonalEdgeStyle;exitX=1;exitY=0.5;exitDx=0;exitDy=0;exitPerimeter=0;entryX=0;entryY=0.25;entryDx=0;entryDy=0;entryPerimeter=0;movable=0;resizable=0;rotatable=0;deletable=0;editable=0;connectable=0;" parent="LymcMFLWiHbA0FvBbtKu-1" source="LymcMFLWiHbA0FvBbtKu-19" target="LymcMFLWiHbA0FvBbtKu-24" edge="1">
                        <mxGeometry x="0.2901" width="240" relative="1" as="geometry">
                            <mxPoint x="-1038.9999999999998" y="348" as="sourcePoint"/>
                            <mxPoint x="-554" y="278" as="targetPoint"/>
                            <Array as="points">
                                <mxPoint x="-1432" y="69"/>
                                <mxPoint x="-1432" y="99"/>
                            </Array>
                            <mxPoint as="offset"/>
                        </mxGeometry>
                    </mxCell>
                </object>
                <object placeholders="1" c4Type="Relationship" c4Description="Visits home and login page;" label="&lt;div style=&quot;text-align: left&quot;&gt;&lt;div style=&quot;text-align: center&quot;&gt;&lt;b&gt;%c4Description%&lt;/b&gt;&lt;/div&gt;" id="LymcMFLWiHbA0FvBbtKu-22">
                    <mxCell style="endArrow=blockThin;html=1;fontSize=10;fontColor=#404040;strokeWidth=2;endFill=1;strokeColor=#828282;elbow=vertical;metaEdit=1;endSize=14;startSize=14;jumpStyle=arc;jumpSize=16;rounded=0;edgeStyle=orthogonalEdgeStyle;exitX=1;exitY=0.5;exitDx=0;exitDy=0;exitPerimeter=0;entryX=0;entryY=0.75;entryDx=0;entryDy=0;entryPerimeter=0;movable=0;resizable=0;rotatable=0;deletable=0;editable=0;connectable=0;" parent="LymcMFLWiHbA0FvBbtKu-1" source="LymcMFLWiHbA0FvBbtKu-18" target="LymcMFLWiHbA0FvBbtKu-24" edge="1">
                        <mxGeometry x="0.521" width="240" relative="1" as="geometry">
                            <mxPoint x="-839.0000000000002" y="168" as="sourcePoint"/>
                            <mxPoint x="-554" y="398" as="targetPoint"/>
                            <Array as="points">
                                <mxPoint x="-1373" y="470"/>
                                <mxPoint x="-1373" y="179"/>
                            </Array>
                            <mxPoint as="offset"/>
                        </mxGeometry>
                    </mxCell>
                </object>
                <object placeholders="1" c4Name="Authentication system" c4Type="Software System" c4Description="System used for authentication and authorization." label="&lt;font style=&quot;font-size: 16px&quot;&gt;&lt;b&gt;%c4Name%&lt;/b&gt;&lt;/font&gt;&lt;div&gt;[%c4Type%]&lt;/div&gt;&lt;br&gt;&lt;div&gt;&lt;font style=&quot;font-size: 11px&quot;&gt;&lt;font color=&quot;#cccccc&quot;&gt;%c4Description%&lt;/font&gt;&lt;/div&gt;" id="LymcMFLWiHbA0FvBbtKu-23">
                    <mxCell style="rounded=1;whiteSpace=wrap;html=1;labelBackgroundColor=none;fillColor=#8C8496;fontColor=#ffffff;align=center;arcSize=10;strokeColor=#736782;metaEdit=1;resizable=0;points=[[0.25,0,0],[0.5,0,0],[0.75,0,0],[1,0.25,0],[1,0.5,0],[1,0.75,0],[0.75,1,0],[0.5,1,0],[0.25,1,0],[0,0.75,0],[0,0.5,0],[0,0.25,0]];strokeWidth=2;movable=0;rotatable=0;deletable=0;editable=0;connectable=0;" parent="LymcMFLWiHbA0FvBbtKu-1" vertex="1">
                        <mxGeometry x="-630" y="591" width="240" height="120" as="geometry"/>
                    </mxCell>
                </object>
                <object placeholders="1" c4Type="Single-Page Application" c4Container="Container" c4Technology="Functional React" c4Description="Roadmap web page containing all functionality to users in their browser." label="&lt;font style=&quot;font-size: 16px&quot;&gt;&lt;b&gt;%c4Type%&lt;/b&gt;&lt;/font&gt;&lt;div&gt;[%c4Container%:&amp;nbsp;%c4Technology%]&lt;/div&gt;&lt;br&gt;&lt;div&gt;&lt;font style=&quot;font-size: 11px&quot;&gt;&lt;font color=&quot;#E6E6E6&quot;&gt;%c4Description%&lt;/font&gt;&lt;/div&gt;" id="LymcMFLWiHbA0FvBbtKu-24">
                    <mxCell style="shape=mxgraph.c4.webBrowserContainer2;whiteSpace=wrap;html=1;boundedLbl=1;rounded=0;labelBackgroundColor=none;strokeColor=#118ACD;fillColor=#23A2D9;strokeColor=#118ACD;strokeColor2=#0E7DAD;fontSize=12;fontColor=#ffffff;align=center;metaEdit=1;points=[[0.5,0,0],[1,0.25,0],[1,0.5,0],[1,0.75,0],[0.5,1,0],[0,0.75,0],[0,0.5,0],[0,0.25,0]];resizable=0;strokeWidth=2;movable=0;rotatable=0;deletable=0;editable=0;connectable=0;" parent="LymcMFLWiHbA0FvBbtKu-1" vertex="1">
                        <mxGeometry x="-1027" y="59" width="240" height="160" as="geometry"/>
                    </mxCell>
                </object>
                <object placeholders="1" c4Name="C2 extended" c4Type="ScopeBoundary" c4Application="Scope" label="&lt;font style=&quot;font-size: 16px&quot;&gt;&lt;b&gt;&lt;div style=&quot;text-align: left&quot;&gt;%c4Name%&lt;/div&gt;&lt;/b&gt;&lt;/font&gt;&lt;div style=&quot;text-align: left&quot;&gt;[%c4Application%]&lt;/div&gt;" id="LymcMFLWiHbA0FvBbtKu-25">
                    <mxCell style="rounded=1;fontSize=11;whiteSpace=wrap;html=1;dashed=1;arcSize=20;fillColor=none;strokeColor=#666666;fontColor=#333333;labelBackgroundColor=none;align=left;verticalAlign=bottom;labelBorderColor=none;spacingTop=0;spacing=10;dashPattern=8 4;metaEdit=1;rotatable=0;perimeter=rectanglePerimeter;noLabel=0;labelPadding=0;allowArrows=0;connectable=0;expand=0;recursiveResize=0;editable=0;pointerEvents=0;absoluteArcSize=1;points=[[0.25,0,0],[0.5,0,0],[0.75,0,0],[1,0.25,0],[1,0.5,0],[1,0.75,0],[0.75,1,0],[0.5,1,0],[0.25,1,0],[0,0.75,0],[0,0.5,0],[0,0.25,0]];strokeWidth=2;movable=0;resizable=0;deletable=0;" parent="LymcMFLWiHbA0FvBbtKu-1" vertex="1">
                        <mxGeometry x="-1770" y="-163" width="1886" height="900" as="geometry"/>
                    </mxCell>
                </object>
                <object placeholders="1" c4Name="API application" c4Type="Container" c4Technology="e.g. SpringBoot" c4Description="Provides all roadmaps functionality via JSON/HTTPS API" label="&lt;font style=&quot;font-size: 16px&quot;&gt;&lt;b&gt;%c4Name%&lt;/b&gt;&lt;/font&gt;&lt;div&gt;[%c4Type%: %c4Technology%]&lt;/div&gt;&lt;br&gt;&lt;div&gt;&lt;font style=&quot;font-size: 11px&quot;&gt;&lt;font color=&quot;#E6E6E6&quot;&gt;%c4Description%&lt;/font&gt;&lt;/div&gt;" id="LymcMFLWiHbA0FvBbtKu-26">
                    <mxCell style="rounded=1;whiteSpace=wrap;html=1;fontSize=11;labelBackgroundColor=none;fillColor=#23A2D9;fontColor=#ffffff;align=center;arcSize=10;strokeColor=#0E7DAD;metaEdit=1;resizable=0;points=[[0.25,0,0],[0.5,0,0],[0.75,0,0],[1,0.25,0],[1,0.5,0],[1,0.75,0],[0.75,1,0],[0.5,1,0],[0.25,1,0],[0,0.75,0],[0,0.5,0],[0,0.25,0]];strokeWidth=2;movable=0;rotatable=0;deletable=0;editable=0;connectable=0;" parent="LymcMFLWiHbA0FvBbtKu-1" vertex="1">
                        <mxGeometry x="-630" y="254" width="240" height="120" as="geometry"/>
                    </mxCell>
                </object>
                <object placeholders="1" c4Type="Relationship" c4Technology="JSON/HTTP" c4Description="Makes API calls" label="&lt;div style=&quot;text-align: left&quot;&gt;&lt;div style=&quot;text-align: center&quot;&gt;&lt;b&gt;%c4Description%&lt;/b&gt;&lt;/div&gt;&lt;div style=&quot;text-align: center&quot;&gt;[%c4Technology%]&lt;/div&gt;&lt;/div&gt;" id="LymcMFLWiHbA0FvBbtKu-27">
                    <mxCell style="endArrow=blockThin;html=1;fontSize=10;fontColor=#404040;strokeWidth=2;endFill=1;strokeColor=#828282;elbow=vertical;metaEdit=1;endSize=14;startSize=14;jumpStyle=arc;jumpSize=16;rounded=0;edgeStyle=orthogonalEdgeStyle;exitX=1;exitY=0.5;exitDx=0;exitDy=0;exitPerimeter=0;entryX=0;entryY=0.25;entryDx=0;entryDy=0;entryPerimeter=0;movable=0;resizable=0;rotatable=0;deletable=0;editable=0;connectable=0;" parent="LymcMFLWiHbA0FvBbtKu-1" source="LymcMFLWiHbA0FvBbtKu-24" target="LymcMFLWiHbA0FvBbtKu-26" edge="1">
                        <mxGeometry width="240" relative="1" as="geometry">
                            <mxPoint x="-768" y="474" as="sourcePoint"/>
                            <mxPoint x="-728" y="416" as="targetPoint"/>
                        </mxGeometry>
                    </mxCell>
                </object>
                <object placeholders="1" c4Type="Relationship" c4Technology="e.g. JSON/HTTP" c4Description="e.g. Makes API calls" label="&lt;div style=&quot;text-align: left&quot;&gt;&lt;div style=&quot;text-align: center&quot;&gt;&lt;b&gt;%c4Description%&lt;/b&gt;&lt;/div&gt;&lt;div style=&quot;text-align: center&quot;&gt;[%c4Technology%]&lt;/div&gt;&lt;/div&gt;" id="LymcMFLWiHbA0FvBbtKu-28">
                    <mxCell style="endArrow=blockThin;html=1;fontSize=10;fontColor=#404040;strokeWidth=2;endFill=1;strokeColor=#828282;elbow=vertical;metaEdit=1;endSize=14;startSize=14;jumpStyle=arc;jumpSize=16;rounded=0;edgeStyle=orthogonalEdgeStyle;exitX=0.5;exitY=1;exitDx=0;exitDy=0;exitPerimeter=0;entryX=0.5;entryY=0;entryDx=0;entryDy=0;entryPerimeter=0;movable=0;resizable=0;rotatable=0;deletable=0;editable=0;connectable=0;" parent="LymcMFLWiHbA0FvBbtKu-1" source="LymcMFLWiHbA0FvBbtKu-26" target="LymcMFLWiHbA0FvBbtKu-23" edge="1">
                        <mxGeometry width="240" relative="1" as="geometry">
                            <mxPoint x="-616" y="454" as="sourcePoint"/>
                            <mxPoint x="-376" y="454" as="targetPoint"/>
                        </mxGeometry>
                    </mxCell>
                </object>
                <object placeholders="1" c4Name="Skill Tracking" c4Type="SoftwareSystemScopeBoundary" c4Application="Software System" label="&lt;font style=&quot;font-size: 16px&quot;&gt;&lt;b&gt;&lt;div style=&quot;text-align: left&quot;&gt;%c4Name%&lt;/div&gt;&lt;/b&gt;&lt;/font&gt;&lt;div style=&quot;text-align: left&quot;&gt;[%c4Application%]&lt;/div&gt;" id="LymcMFLWiHbA0FvBbtKu-29">
                    <mxCell style="rounded=1;fontSize=11;whiteSpace=wrap;html=1;dashed=1;arcSize=20;fillColor=none;strokeColor=#3162AF;fontColor=#333333;labelBackgroundColor=none;align=left;verticalAlign=bottom;labelBorderColor=none;spacingTop=0;spacing=10;dashPattern=8 4;metaEdit=1;rotatable=0;perimeter=rectanglePerimeter;noLabel=0;labelPadding=0;allowArrows=0;connectable=0;expand=0;recursiveResize=0;editable=0;pointerEvents=0;absoluteArcSize=1;points=[[0.25,0,0],[0.5,0,0],[0.75,0,0],[1,0.25,0],[1,0.5,0],[1,0.75,0],[0.75,1,0],[0.5,1,0],[0.25,1,0],[0,0.75,0],[0,0.5,0],[0,0.25,0]];strokeWidth=2;movable=0;resizable=0;deletable=0;" parent="LymcMFLWiHbA0FvBbtKu-1" vertex="1">
                        <mxGeometry x="-1063" y="-99" width="1142" height="651" as="geometry"/>
                    </mxCell>
                </object>
                <object placeholders="1" c4Type="Container name" c4Container="Container" c4Technology="e.g. PostgreSQL" c4Description="Stores user credentials, access logs, information, skills, roadmaps , etc." label="&lt;font style=&quot;font-size: 16px&quot;&gt;&lt;b&gt;%c4Type%&lt;/b&gt;&lt;/font&gt;&lt;div&gt;[%c4Container%:&amp;nbsp;%c4Technology%]&lt;/div&gt;&lt;br&gt;&lt;div&gt;&lt;font style=&quot;font-size: 11px&quot;&gt;&lt;font color=&quot;#E6E6E6&quot;&gt;%c4Description%&lt;/font&gt;&lt;/div&gt;" id="LymcMFLWiHbA0FvBbtKu-30">
                    <mxCell style="shape=cylinder3;size=15;whiteSpace=wrap;html=1;boundedLbl=1;rounded=0;labelBackgroundColor=none;fillColor=#23A2D9;fontSize=12;fontColor=#ffffff;align=center;strokeColor=#0E7DAD;metaEdit=1;points=[[0.5,0,0],[1,0.25,0],[1,0.5,0],[1,0.75,0],[0.5,1,0],[0,0.75,0],[0,0.5,0],[0,0.25,0]];resizable=0;strokeWidth=2;movable=0;rotatable=0;deletable=0;editable=0;connectable=0;" parent="LymcMFLWiHbA0FvBbtKu-1" vertex="1">
                        <mxGeometry x="-203" y="254" width="240" height="120" as="geometry"/>
                    </mxCell>
                </object>
                <object placeholders="1" c4Type="Relationship" c4Technology="SQL/TCP" c4Description="Reads from and writes to" label="&lt;div style=&quot;text-align: left&quot;&gt;&lt;div style=&quot;text-align: center&quot;&gt;&lt;b&gt;%c4Description%&lt;/b&gt;&lt;/div&gt;&lt;div style=&quot;text-align: center&quot;&gt;[%c4Technology%]&lt;/div&gt;&lt;/div&gt;" id="LymcMFLWiHbA0FvBbtKu-31">
                    <mxCell style="endArrow=blockThin;html=1;fontSize=10;fontColor=#404040;strokeWidth=2;endFill=1;strokeColor=#828282;elbow=vertical;metaEdit=1;endSize=14;startSize=14;jumpStyle=arc;jumpSize=16;rounded=0;edgeStyle=orthogonalEdgeStyle;exitX=1;exitY=0.5;exitDx=0;exitDy=0;exitPerimeter=0;entryX=0;entryY=0.5;entryDx=0;entryDy=0;entryPerimeter=0;movable=0;resizable=0;rotatable=0;deletable=0;editable=0;connectable=0;" parent="LymcMFLWiHbA0FvBbtKu-1" source="LymcMFLWiHbA0FvBbtKu-26" target="LymcMFLWiHbA0FvBbtKu-30" edge="1">
                        <mxGeometry width="240" relative="1" as="geometry">
                            <mxPoint x="-744" y="302" as="sourcePoint"/>
                            <mxPoint x="-504" y="302" as="targetPoint"/>
                        </mxGeometry>
                    </mxCell>
                </object>
                <object placeholders="1" c4Type="Single-Page Application" c4Container="Container" c4Technology="Functional React" c4Description="Roadmap web page containing all functionality to users in their browser." label="&lt;font style=&quot;font-size: 16px&quot;&gt;&lt;b&gt;%c4Type%&lt;/b&gt;&lt;/font&gt;&lt;div&gt;[%c4Container%:&amp;nbsp;%c4Technology%]&lt;/div&gt;&lt;br&gt;&lt;div&gt;&lt;font style=&quot;font-size: 11px&quot;&gt;&lt;font color=&quot;#E6E6E6&quot;&gt;%c4Description%&lt;/font&gt;&lt;/div&gt;" id="LymcMFLWiHbA0FvBbtKu-32">
                    <mxCell style="shape=mxgraph.c4.webBrowserContainer2;whiteSpace=wrap;html=1;boundedLbl=1;rounded=0;labelBackgroundColor=none;strokeColor=#118ACD;fillColor=#23A2D9;strokeColor=#118ACD;strokeColor2=#0E7DAD;fontSize=12;fontColor=#ffffff;align=center;metaEdit=1;points=[[0.5,0,0],[1,0.25,0],[1,0.5,0],[1,0.75,0],[0.5,1,0],[0,0.75,0],[0,0.5,0],[0,0.25,0]];resizable=0;strokeWidth=2;movable=0;rotatable=0;deletable=0;editable=0;connectable=0;" parent="LymcMFLWiHbA0FvBbtKu-1" vertex="1">
                        <mxGeometry x="-1030" y="262" width="240" height="160" as="geometry"/>
                    </mxCell>
                </object>
                <object placeholders="1" c4Type="Relationship" c4Technology="JSON/HTTP" c4Description="Makes API calls" label="&lt;div style=&quot;text-align: left&quot;&gt;&lt;div style=&quot;text-align: center&quot;&gt;&lt;b&gt;%c4Description%&lt;/b&gt;&lt;/div&gt;&lt;div style=&quot;text-align: center&quot;&gt;[%c4Technology%]&lt;/div&gt;&lt;/div&gt;" id="LymcMFLWiHbA0FvBbtKu-33">
                    <mxCell style="endArrow=blockThin;html=1;fontSize=10;fontColor=#404040;strokeWidth=2;endFill=1;strokeColor=#828282;elbow=vertical;metaEdit=1;endSize=14;startSize=14;jumpStyle=arc;jumpSize=16;rounded=0;edgeStyle=orthogonalEdgeStyle;exitX=1;exitY=0.5;exitDx=0;exitDy=0;exitPerimeter=0;entryX=0;entryY=0.75;entryDx=0;entryDy=0;entryPerimeter=0;movable=0;resizable=0;rotatable=0;deletable=0;editable=0;connectable=0;" parent="LymcMFLWiHbA0FvBbtKu-1" source="LymcMFLWiHbA0FvBbtKu-32" target="LymcMFLWiHbA0FvBbtKu-26" edge="1">
                        <mxGeometry width="240" relative="1" as="geometry">
                            <mxPoint x="-775.0000000000005" y="57" as="sourcePoint"/>
                            <mxPoint x="-620" y="324" as="targetPoint"/>
                        </mxGeometry>
                    </mxCell>
                </object>
                <object placeholders="1" c4Type="Relationship" c4Description="Views pages and admin pages;&#10;View, creates, update, and delete any roadmaps;" label="&lt;div style=&quot;text-align: left&quot;&gt;&lt;div style=&quot;text-align: center&quot;&gt;&lt;b&gt;%c4Description%&lt;/b&gt;&lt;/div&gt;" id="LymcMFLWiHbA0FvBbtKu-34">
                    <mxCell style="endArrow=blockThin;html=1;fontSize=10;fontColor=#404040;strokeWidth=2;endFill=1;strokeColor=#828282;elbow=vertical;metaEdit=1;endSize=14;startSize=14;jumpStyle=arc;jumpSize=16;rounded=0;edgeStyle=orthogonalEdgeStyle;exitX=1;exitY=0.75;exitDx=0;exitDy=0;exitPerimeter=0;entryX=0;entryY=0.25;entryDx=0;entryDy=0;entryPerimeter=0;movable=0;resizable=0;rotatable=0;deletable=0;editable=0;connectable=0;" parent="LymcMFLWiHbA0FvBbtKu-1" source="LymcMFLWiHbA0FvBbtKu-19" target="LymcMFLWiHbA0FvBbtKu-32" edge="1">
                        <mxGeometry x="0.4845" y="3" width="240" relative="1" as="geometry">
                            <mxPoint x="-1391" y="79" as="sourcePoint"/>
                            <mxPoint x="-1017" y="109" as="targetPoint"/>
                            <Array as="points">
                                <mxPoint x="-1475" y="114"/>
                                <mxPoint x="-1475" y="302"/>
                            </Array>
                            <mxPoint as="offset"/>
                        </mxGeometry>
                    </mxCell>
                </object>
                <object placeholders="1" c4Type="Relationship" c4Description="Views pages;&#10;View, creates, update, and delete their own roadmaps;" label="&lt;div style=&quot;text-align: left&quot;&gt;&lt;div style=&quot;text-align: center&quot;&gt;&lt;b&gt;%c4Description%&lt;/b&gt;&lt;/div&gt;" id="LymcMFLWiHbA0FvBbtKu-35">
                    <mxCell style="endArrow=blockThin;html=1;fontSize=10;fontColor=#404040;strokeWidth=2;endFill=1;strokeColor=#828282;elbow=vertical;metaEdit=1;endSize=14;startSize=14;jumpStyle=arc;jumpSize=16;rounded=0;edgeStyle=orthogonalEdgeStyle;exitX=1;exitY=0.75;exitDx=0;exitDy=0;exitPerimeter=0;entryX=0;entryY=0.5;entryDx=0;entryDy=0;entryPerimeter=0;movable=0;resizable=0;rotatable=0;deletable=0;editable=0;connectable=0;" parent="LymcMFLWiHbA0FvBbtKu-1" source="LymcMFLWiHbA0FvBbtKu-17" target="LymcMFLWiHbA0FvBbtKu-32" edge="1">
                        <mxGeometry x="0.3989" y="10" width="240" relative="1" as="geometry">
                            <mxPoint x="-1511" y="279" as="sourcePoint"/>
                            <mxPoint x="-1017" y="149" as="targetPoint"/>
                            <Array as="points">
                                <mxPoint x="-1521" y="279"/>
                                <mxPoint x="-1500" y="279"/>
                                <mxPoint x="-1500" y="342"/>
                            </Array>
                            <mxPoint as="offset"/>
                        </mxGeometry>
                    </mxCell>
                </object>
                <object placeholders="1" c4Type="Relationship" c4Description="Visits home and login page;" label="&lt;div style=&quot;text-align: left&quot;&gt;&lt;div style=&quot;text-align: center&quot;&gt;&lt;b&gt;%c4Description%&lt;/b&gt;&lt;/div&gt;" id="LymcMFLWiHbA0FvBbtKu-36">
                    <mxCell style="endArrow=blockThin;html=1;fontSize=10;fontColor=#404040;strokeWidth=2;endFill=1;strokeColor=#828282;elbow=vertical;metaEdit=1;endSize=14;startSize=14;jumpStyle=arc;jumpSize=16;rounded=0;edgeStyle=orthogonalEdgeStyle;exitX=1;exitY=0.75;exitDx=0;exitDy=0;exitPerimeter=0;entryX=0;entryY=0.75;entryDx=0;entryDy=0;entryPerimeter=0;movable=0;resizable=0;rotatable=0;deletable=0;editable=0;connectable=0;" parent="LymcMFLWiHbA0FvBbtKu-1" source="LymcMFLWiHbA0FvBbtKu-18" target="LymcMFLWiHbA0FvBbtKu-32" edge="1">
                        <mxGeometry x="0.4231" width="240" relative="1" as="geometry">
                            <mxPoint x="-1511" y="480" as="sourcePoint"/>
                            <mxPoint x="-1017" y="189" as="targetPoint"/>
                            <Array as="points">
                                <mxPoint x="-1327" y="515"/>
                                <mxPoint x="-1327" y="382"/>
                            </Array>
                            <mxPoint x="1" as="offset"/>
                        </mxGeometry>
                    </mxCell>
                </object>
                <mxCell id="LymcMFLWiHbA0FvBbtKu-42" value="Legend" style="align=left;fontSize=16;fontStyle=1;strokeColor=none;fillColor=none;fontColor=#4D4D4D;spacingTop=-8;resizable=0;strokeWidth=2;movable=0;rotatable=0;deletable=0;editable=0;connectable=0;" parent="LymcMFLWiHbA0FvBbtKu-1" vertex="1">
                    <mxGeometry x="143" y="-164" width="180" height="30" as="geometry"/>
                </mxCell>
                <mxCell id="LymcMFLWiHbA0FvBbtKu-43" value="" style="shape=table;html=1;whiteSpace=wrap;startSize=0;container=1;collapsible=0;childLayout=tableLayout;fillColor=none;align=left;spacingLeft=10;strokeColor=none;rounded=1;arcSize=11;fontColor=#FFFFFF;resizable=0;points=[[0.25,0,0],[0.5,0,0],[0.75,0,0],[1,0.25,0],[1,0.5,0],[1,0.75,0],[0.75,1,0],[0.5,1,0],[0.25,1,0],[0,0.75,0],[0,0.5,0],[0,0.25,0]];strokeWidth=2;movable=0;rotatable=0;deletable=0;editable=0;connectable=0;" parent="LymcMFLWiHbA0FvBbtKu-1" vertex="1">
                    <mxGeometry x="143" y="-134" width="180" height="90" as="geometry"/>
                </mxCell>
                <mxCell id="LymcMFLWiHbA0FvBbtKu-44" value="Person" style="shape=partialRectangle;html=1;whiteSpace=wrap;connectable=0;fillColor=#1E4074;top=0;left=0;bottom=0;right=0;overflow=hidden;pointerEvents=1;align=left;spacingLeft=10;strokeColor=none;fontColor=#FFFFFF;strokeWidth=2;movable=0;resizable=0;rotatable=0;deletable=0;editable=0;" parent="LymcMFLWiHbA0FvBbtKu-43" vertex="1">
                    <mxGeometry width="180" height="30" as="geometry"/>
                </mxCell>
                <mxCell id="LymcMFLWiHbA0FvBbtKu-45" value="Container" style="shape=partialRectangle;html=1;whiteSpace=wrap;connectable=0;fillColor=#52A2D8;top=0;left=0;bottom=0;right=0;overflow=hidden;pointerEvents=1;align=left;spacingLeft=10;fontColor=#FFFFFF;strokeWidth=2;movable=0;resizable=0;rotatable=0;deletable=0;editable=0;" parent="LymcMFLWiHbA0FvBbtKu-43" vertex="1">
                    <mxGeometry y="30" width="180" height="30" as="geometry"/>
                </mxCell>
                <mxCell id="LymcMFLWiHbA0FvBbtKu-46" value="External Software System" style="shape=partialRectangle;html=1;whiteSpace=wrap;connectable=0;fillColor=#8B8496;top=0;left=0;bottom=0;right=0;overflow=hidden;pointerEvents=1;align=left;spacingLeft=10;fontColor=#FFFFFF;strokeWidth=2;movable=0;resizable=0;rotatable=0;deletable=0;editable=0;" parent="LymcMFLWiHbA0FvBbtKu-43" vertex="1">
                    <mxGeometry y="60" width="180" height="30" as="geometry"/>
                </mxCell>
            </root>
        </mxGraphModel>
    </diagram>
</mxfile>